<?xml version="1.0" encoding="utf-8"?>
<!-- Generator: Adobe Illustrator 25.0.0, SVG Export Plug-In . SVG Version: 6.00 Build 0)  -->
<svg version="1.1" id="Layer_1" xmlns="http://www.w3.org/2000/svg" xmlns:xlink="http://www.w3.org/1999/xlink" x="0px" y="0px"
	 viewBox="0 0 189.41 222.08" style="enable-background:new 0 0 189.41 222.08;" xml:space="preserve">
<style type="text/css">
	.st0{fill:#FFFFFF;}
</style>
<path id="path235_1_" class="st0" d="M155.42,221.98c-3.5-0.37-5.37-0.85-8.02-2.08c-0.67-0.31-1.59-0.68-2.04-0.82
	c-0.45-0.14-0.93-0.38-1.06-0.54c-0.13-0.16-0.64-0.47-1.13-0.69c-0.49-0.22-0.89-0.48-0.89-0.57c0-0.09-0.45-0.3-1-0.46
	c-0.55-0.16-1-0.4-1.01-0.53c0-0.13-0.43-0.43-0.95-0.68c-0.52-0.24-1.05-0.52-1.17-0.62c-0.46-0.36-2.85-1.72-3.02-1.72
	c-0.1,0-0.31-0.13-0.47-0.28c-0.16-0.15-0.7-0.48-1.19-0.72c-0.49-0.24-0.94-0.5-1-0.57c-0.06-0.07-0.91-0.56-1.89-1.1
	c-0.98-0.53-1.83-1.03-1.89-1.11s-0.46-0.32-0.89-0.53c-0.43-0.22-1.33-0.73-2.01-1.15c-0.67-0.41-1.55-0.9-1.95-1.09
	c-0.4-0.18-0.85-0.44-1-0.58c-0.16-0.14-0.61-0.42-1-0.63c-1.8-0.95-4.64-2.58-4.74-2.73c-0.06-0.09-0.46-0.33-0.89-0.53
	c-0.85-0.4-2.43-1.32-2.79-1.63c-0.12-0.11-0.56-0.33-0.97-0.5c-0.41-0.17-0.86-0.42-1.01-0.55c-0.14-0.13-0.66-0.44-1.15-0.69
	c-0.49-0.24-0.94-0.51-1-0.58c-0.06-0.08-0.51-0.35-1-0.61c-0.49-0.26-1.29-0.72-1.78-1.02s-2.17-1.28-3.74-2.17
	c-1.57-0.9-3.32-1.9-3.9-2.23c-2.06-1.18-3.24-1.85-3.86-2.19c-0.35-0.19-0.81-0.46-1.03-0.62c-0.22-0.15-0.72-0.45-1.11-0.66
	c-2.12-1.14-4.65-2.6-4.74-2.74c-0.06-0.09-0.46-0.33-0.89-0.53c-0.85-0.4-2.43-1.32-2.79-1.63c-0.12-0.11-0.56-0.33-0.97-0.5
	c-0.41-0.17-0.86-0.42-1-0.56c-0.14-0.14-0.56-0.41-0.93-0.6c-1.27-0.66-4.9-2.72-5.02-2.85c-0.06-0.07-0.51-0.32-1-0.57
	c-0.49-0.24-0.94-0.5-1-0.57c-0.06-0.07-0.91-0.57-1.89-1.1s-1.83-1.03-1.89-1.11c-0.06-0.08-0.46-0.32-0.89-0.53
	c-0.43-0.22-1.33-0.73-2.01-1.14c-0.67-0.41-1.63-0.96-2.12-1.21c-0.49-0.25-1.26-0.69-1.72-0.96c-0.45-0.28-1.71-0.99-2.79-1.6
	c-1.08-0.6-2.01-1.17-2.07-1.26c-0.06-0.09-0.46-0.33-0.89-0.53c-0.85-0.4-2.43-1.32-2.79-1.63c-0.12-0.11-0.56-0.33-0.97-0.5
	c-0.41-0.17-0.86-0.42-1.01-0.55c-0.15-0.13-0.62-0.43-1.04-0.67c-3.42-1.89-4.78-2.67-4.89-2.81c-0.06-0.08-0.45-0.27-0.85-0.44
	c-0.41-0.17-0.86-0.42-1-0.56c-0.14-0.14-1.06-0.69-2.04-1.23c-0.98-0.54-1.83-1.04-1.89-1.11c-0.06-0.08-0.46-0.32-0.89-0.53
	c-0.43-0.22-0.98-0.51-1.23-0.66c-0.25-0.15-1.58-0.92-2.96-1.71c-1.39-0.79-3.49-2.02-4.68-2.72c-1.19-0.7-2.54-1.44-3-1.64
	c-0.46-0.2-0.84-0.45-0.84-0.54c0-0.1-0.38-0.34-0.84-0.54c-0.87-0.38-2.46-1.29-2.84-1.62c-0.12-0.11-0.56-0.33-0.97-0.5
	c-0.41-0.17-0.86-0.42-1-0.56c-0.14-0.14-1.06-0.69-2.04-1.23c-0.98-0.54-1.83-1.04-1.89-1.12c-0.06-0.08-0.45-0.28-0.85-0.44
	c-0.41-0.17-0.86-0.41-1.01-0.54c-0.15-0.13-0.62-0.43-1.04-0.67c-2.78-1.54-4.8-2.69-4.89-2.79c-0.06-0.07-0.48-0.33-0.94-0.57
	c-2.1-1.13-4.76-2.65-4.86-2.78c-0.06-0.08-0.51-0.33-1-0.55c-0.49-0.23-0.94-0.48-1-0.57c-0.06-0.09-0.46-0.34-0.89-0.55
	c-0.43-0.22-0.97-0.56-1.19-0.76c-0.23-0.2-0.48-0.34-0.56-0.31C0.13,135.51-0.11,35.22,0.05,30.33c0.09-2.69,0.18-3.45,0.45-3.62
	c0.29-0.19,0.29-0.24,0.01-0.42c-0.26-0.17-0.27-0.36-0.06-1.06c0.14-0.47,0.37-1.45,0.51-2.19c0.14-0.74,0.44-1.76,0.67-2.27
	c0.23-0.51,0.42-1.05,0.42-1.19c0-0.54,2.53-5.03,3.74-6.65c1.29-1.73,4.11-4.68,5.74-6c1.83-1.49,6.87-4.5,7.54-4.5
	c0.1,0,0.6-0.19,1.11-0.42c0.51-0.23,1.39-0.54,1.94-0.69c0.55-0.15,1.17-0.35,1.37-0.46c0.2-0.11,1.51-0.36,2.9-0.56
	c3.95-0.58,11.96-0.23,13,0.57c0.12,0.09,0.57,0.24,1,0.33c0.43,0.09,1.13,0.34,1.56,0.56c0.43,0.22,1.13,0.53,1.56,0.68
	c0.43,0.15,0.93,0.4,1.11,0.55c0.18,0.15,1.14,0.7,2.12,1.23c0.98,0.53,2.28,1.28,2.9,1.67c0.61,0.39,1.97,1.17,3.01,1.75
	c1.04,0.58,2.2,1.23,2.56,1.46c0.37,0.22,1.87,1.08,3.34,1.91c1.47,0.83,2.93,1.67,3.23,1.88c0.31,0.21,1.36,0.82,2.34,1.35
	c0.98,0.53,1.83,1.02,1.89,1.1c0.06,0.07,0.49,0.3,0.96,0.52c0.47,0.22,0.97,0.5,1.11,0.63c0.35,0.31,1.63,1.09,2.61,1.6
	c0.43,0.22,1.25,0.68,1.82,1.01c0.57,0.34,1.91,1.11,2.98,1.72c1.07,0.61,2.41,1.38,2.97,1.71c0.57,0.33,1.44,0.83,1.95,1.11
	c2.41,1.36,3.15,1.79,3.88,2.24c0.43,0.26,1.24,0.74,1.81,1.05c0.57,0.31,1.92,1.06,3.01,1.67c1.09,0.6,2.03,1.16,2.09,1.24
	c0.06,0.08,0.91,0.58,1.89,1.12c0.98,0.53,1.83,1.03,1.89,1.1c0.06,0.07,0.54,0.32,1.06,0.55c0.52,0.23,0.95,0.5,0.95,0.61
	s0.13,0.19,0.28,0.19c0.15,0,0.78,0.33,1.39,0.73c0.61,0.4,1.76,1.07,2.56,1.49c0.8,0.41,1.48,0.84,1.52,0.94
	c0.04,0.1,0.15,0.19,0.25,0.19s1.06,0.52,2.15,1.15c1.09,0.63,2.23,1.3,2.54,1.47c0.31,0.18,1.02,0.59,1.59,0.91
	c0.57,0.32,1.9,1.09,2.96,1.7c5.35,3.09,6.03,3.48,7.01,3.98c0.44,0.23,0.86,0.49,0.92,0.57c0.06,0.09,0.91,0.59,1.89,1.13
	c0.98,0.53,1.83,1.03,1.89,1.1c0.06,0.07,0.54,0.32,1.06,0.55c0.52,0.23,0.95,0.5,0.95,0.59s0.33,0.28,0.74,0.42
	c0.41,0.13,0.93,0.39,1.17,0.57c0.87,0.67,2.01,1.36,2.73,1.66c0.41,0.17,0.86,0.42,1,0.56c0.14,0.14,1.49,0.95,3,1.8
	c1.51,0.85,3.18,1.8,3.71,2.11c2.66,1.53,3.37,1.93,4.11,2.31c0.44,0.23,0.86,0.48,0.92,0.56c0.06,0.08,0.36,0.28,0.66,0.45
	c0.3,0.17,1.61,0.9,2.9,1.63c2.75,1.54,2.88,1.62,4.39,2.57c0.63,0.4,1.26,0.73,1.39,0.73c0.13,0,0.24,0.08,0.24,0.17
	c0,0.09,0.45,0.35,1,0.58c0.55,0.23,1,0.48,1,0.57c0,0.09,0.42,0.34,0.94,0.57s1.04,0.5,1.17,0.61c0.47,0.4,3.22,1.96,3.45,1.96
	c0.13,0,0.24,0.08,0.24,0.17c0,0.09,0.43,0.37,0.95,0.61c0.52,0.24,0.99,0.5,1.06,0.57c0.06,0.07,0.9,0.57,1.86,1.12
	c0.96,0.54,2.18,1.24,2.71,1.54c0.53,0.31,1.93,1.11,3.11,1.78c1.18,0.67,2.49,1.43,2.89,1.67c1.23,0.74,5.01,2.87,5.88,3.31
	c0.45,0.23,0.87,0.49,0.93,0.57c0.06,0.09,1.37,0.85,2.9,1.69s2.89,1.61,3.01,1.7c1.21,0.9,2.12,1.92,2.67,3.01l0.67,1.3v53.72
	c0,40.09-0.07,53.95-0.26,54.61c-0.14,0.49-0.48,1.69-0.74,2.67c-0.27,0.98-0.56,1.88-0.66,2.01c-0.1,0.12-0.3,0.63-0.46,1.12
	c-0.16,0.49-0.53,1.34-0.84,1.89c-0.73,1.3-1.89,3.2-2.05,3.34c-0.07,0.06-0.3,0.39-0.52,0.74c-0.69,1.08-1.09,1.53-3.35,3.79
	c-1.21,1.21-2.62,2.46-3.12,2.79c-0.51,0.33-1.05,0.72-1.21,0.88c-0.16,0.15-0.37,0.28-0.46,0.28s-0.37,0.19-0.61,0.42
	c-0.6,0.56-5.78,3.06-6.77,3.26c-0.43,0.09-0.88,0.24-1,0.34c-0.12,0.1-1.08,0.34-2.12,0.53c-1.04,0.19-2.34,0.45-2.9,0.57
	C160.86,222.07,157.34,222.19,155.42,221.98L155.42,221.98z M164.33,220.43c4.53-1.05,8.47-2.86,10.28-4.7
	c1.26-1.29,1.77-2.22,1.2-2.22c-0.16,0-0.43,0.13-0.59,0.29c-0.16,0.16-0.79,0.49-1.4,0.72s-1.46,0.6-1.89,0.82
	c-0.43,0.22-0.91,0.4-1.08,0.4c-0.16,0-0.72,0.19-1.23,0.42s-1.49,0.54-2.16,0.68c-0.67,0.15-1.43,0.36-1.67,0.47
	c-0.4,0.19-3.66,0.82-6.8,1.33c-2.43,0.39-6.39,0.52-6.57,0.22c-0.09-0.15-0.04-0.82,0.12-1.48c0.16-0.66,0.24-1.25,0.18-1.31
	c-0.06-0.06-0.61-0.04-1.23,0.03c-1.08,0.13-1.14,0.17-1.38,0.98c-0.14,0.46-0.56,1.17-0.93,1.57c-0.83,0.88-0.78,0.92,1.91,1.57
	c3.1,0.75,3.98,0.84,7.69,0.77C161.35,220.94,162.75,220.8,164.33,220.43L164.33,220.43z M148.36,217.9
	c0.33-0.27,0.66-0.81,0.74-1.21l0.14-0.72l-3.54,0.01c-2.84,0.01-3.46,0.06-3.17,0.28c1.39,1.01,4.34,2.37,4.85,2.23
	C147.59,218.43,148.03,218.17,148.36,217.9L148.36,217.9z M158.65,217.64c3.85-0.48,9.26-1.75,11.37-2.67
	c0.37-0.16,0.92-0.37,1.23-0.45c1.25-0.36,4.7-2.13,4.57-2.34c-0.08-0.12-0.28-0.22-0.46-0.22c-0.18,0-0.32-0.08-0.32-0.18
	c0-0.26-1.55-0.96-1.8-0.81c-0.11,0.07-0.21,0.35-0.21,0.62c0,0.62-1.56,1.49-2.67,1.49c-0.44,0-1.22,0.26-1.78,0.59
	c-3.99,2.34-7.98,3.42-12.65,3.42c-2.14,0-2.28,0.03-2.28,0.45c0,0.4,0.14,0.44,1.28,0.43C155.62,217.95,157.3,217.81,158.65,217.64
	z M155,216.02c0.47-0.21,0.85-0.45,0.85-0.52c0.01-0.13-1.63-1.1-1.86-1.1c-0.08,0-0.14,0.45-0.14,1s0.07,1,0.15,1
	S154.54,216.24,155,216.02L155,216.02z M160.43,215.48c-0.25-0.14-0.51-0.36-0.6-0.48c-0.1-0.15-0.34-0.14-0.72,0.03
	c-0.92,0.42-0.67,0.72,0.6,0.71C160.7,215.73,160.81,215.69,160.43,215.48L160.43,215.48z M149.18,201.7
	c0-11.58-0.05-13.6-0.32-13.6c-0.17,0-0.35,0.08-0.39,0.18c-0.07,0.16-3.12,1.94-4.98,2.9c-0.37,0.19-0.79,0.47-0.95,0.62
	c-0.15,0.15-0.48,0.34-0.72,0.42c-0.44,0.14-0.44,0.35-0.44,11.61v11.46h3.9h3.9V201.7z M152.02,215.08h0.72v-13.25
	c0-15.2-0.22-13.83,2.23-13.92c5.89-0.21,13.81-2.21,19.59-4.95l2.47-1.17V163.1c0-12.92-0.07-18.69-0.23-18.69
	c-0.13,0-0.61,0.2-1.06,0.44c-3.85,2.05-6.76,2.81-8.16,2.15c-0.42-0.2-0.91-0.36-1.1-0.36s-0.45-0.19-0.58-0.43
	c-0.13-0.24-0.43-0.49-0.68-0.57c-0.25-0.08-0.45-0.33-0.45-0.56s-0.19-0.6-0.42-0.82c-1.19-1.14-0.53-4.64,1.24-6.53
	c1.67-1.78,2.19-2.27,3.07-2.87c0.54-0.36,1.21-0.73,1.5-0.81c0.29-0.09,0.72-0.28,0.97-0.43c0.25-0.15,0.9-0.43,1.45-0.62
	c0.55-0.19,1.76-0.74,2.67-1.21l1.67-0.87l0.06-7.29c0.03-4.01-0.01-7.29-0.09-7.29c-0.08,0-0.76,0.29-1.51,0.65
	c-2.05,0.98-3.27,1.5-4.25,1.79c-0.49,0.15-1.22,0.42-1.62,0.6c-0.4,0.18-0.93,0.27-1.17,0.19c-0.41-0.13-0.44-0.35-0.44-3.43v-3.29
	l-1.62,0.35c-0.89,0.19-1.72,0.42-1.84,0.5c-0.12,0.08-1.38,0.31-2.79,0.51c-1.41,0.2-3.01,0.46-3.56,0.59
	c-0.55,0.13-2.53,0.29-4.4,0.36l-3.4,0.13l0,21.64l0,21.64l0.72,0.43c0.4,0.24,1.1,0.61,1.56,0.82l0.84,0.39v12.47v12.47l-0.84,0.66
	c-0.46,0.36-1.16,0.82-1.56,1.03l-0.72,0.37v14.06v14.06l0.5-0.13C151.07,215.14,151.62,215.08,152.02,215.08L152.02,215.08z
	 M140.36,203.77c0.02-5.98-0.01-11-0.06-11.16c-0.09-0.26-2.2-1.55-4.23-2.58c-0.45-0.23-0.87-0.49-0.93-0.57
	c-0.06-0.09-0.86-0.56-1.78-1.06c-1.66-0.9-1.68-0.9-2.56-0.57c-1.27,0.48-4.38,0.47-5.86-0.03c-1.57-0.53-3.83-1.79-5.02-2.81
	c-0.98-0.84-3.22-3.1-3.72-3.77c-0.31-0.41-0.66-0.85-0.79-0.99c-0.56-0.61-1.92-2.85-2.78-4.58c-1.81-3.63-2.66-7.07-2.66-10.72
	c0-3.43,0.89-5.84,2.78-7.53c0.83-0.75,1.02-1.07,1.2-2.08c0.57-3.22,1.54-5.56,2.93-7.04c2.62-2.8,6.26-3.55,10.58-2.2
	c1.1,0.35,2.06,0.69,2.12,0.77c0.06,0.08,0.56,0.37,1.11,0.65c0.55,0.28,1.47,0.78,2.04,1.11c0.57,0.33,1.87,1.09,2.9,1.68
	c1.02,0.59,2.42,1.41,3.09,1.83c0.67,0.42,1.33,0.76,1.45,0.77c0.15,0.01,0.21-6.3,0.19-18.55c-0.02-10.21-0.04-18.81-0.06-19.11
	c-0.02-0.46-0.35-0.73-1.92-1.56c-1.04-0.55-1.89-1.07-1.89-1.15c0-0.08-0.38-0.31-0.84-0.51c-0.46-0.2-1.39-0.71-2.06-1.12
	c-0.67-0.42-1.63-0.97-2.12-1.22c-0.49-0.26-1.29-0.71-1.78-1.01c-0.49-0.3-1.29-0.76-1.78-1.03c-0.49-0.27-0.94-0.56-1-0.64
	c-0.06-0.09-0.51-0.35-1-0.57c-0.49-0.23-1.02-0.54-1.19-0.7c-0.16-0.16-0.38-0.29-0.47-0.29c-0.18,0-2.58-1.37-3.02-1.72
	c-0.12-0.1-0.65-0.37-1.17-0.6c-0.52-0.23-0.95-0.49-0.95-0.57c0-0.08-0.42-0.33-0.94-0.56c-0.52-0.23-1.04-0.5-1.17-0.61
	c-0.42-0.35-2.79-1.71-3.24-1.85c-0.24-0.08-0.44-0.22-0.44-0.31s-0.43-0.36-0.95-0.59c-0.52-0.23-1-0.48-1.06-0.55
	c-0.06-0.07-0.91-0.57-1.89-1.1c-0.98-0.53-1.83-1.04-1.89-1.13c-0.06-0.09-0.47-0.34-0.92-0.57c-1-0.52-2.37-1.29-7-3.98
	c-1.06-0.61-2.29-1.3-2.74-1.53c-0.45-0.23-0.97-0.55-1.15-0.71c-0.3-0.26-0.33,0.22-0.33,4.2c0,3.22-0.07,4.58-0.26,4.78
	c-0.32,0.33-0.75,0.37-0.75,0.06c0-0.12-0.13-0.22-0.3-0.22c-0.33,0-2.39-1.3-2.65-1.66c-0.09-0.13-0.17-2.36-0.17-4.97l0-4.74
	l-0.56-0.25c-0.31-0.14-0.56-0.32-0.56-0.4c0-0.08-0.43-0.33-0.95-0.56c-0.52-0.23-1.02-0.52-1.11-0.66
	c-0.09-0.13-0.17,1.89-0.17,4.49l0,4.74h-0.57c-0.31,0-0.69-0.1-0.84-0.23c-0.15-0.13-0.82-0.55-1.5-0.95l-1.23-0.72l-0.03-4.34
	c-0.04-5.87,0.01-5.45-0.7-5.81c-0.34-0.17-0.66-0.38-0.72-0.45c-0.06-0.08-0.54-0.35-1.05-0.62l-0.94-0.48l-0.06,4.62
	c-0.07,5.19-0.07,5.2-1.59,4.25c-0.45-0.28-1.14-0.72-1.54-0.97l-0.72-0.45l-0.06-4.94l-0.06-4.94l-1.64-0.9
	c-0.9-0.5-1.7-0.9-1.78-0.9c-0.08,0-0.14,2.06-0.14,4.57c0,4.52-0.01,4.57-0.48,4.57c-0.26,0-0.97-0.3-1.56-0.67
	c-0.6-0.37-1.18-0.67-1.28-0.67c-0.45,0-0.61-1.44-0.58-5.13c0.05-5.18,0.05-5.18-1.08-5.76c-0.51-0.26-1.25-0.68-1.65-0.92
	l-0.72-0.44v4.55c0,4.33-0.02,4.56-0.44,4.69c-0.41,0.13-1.12-0.12-1.67-0.6c-0.13-0.11-0.59-0.39-1.02-0.61
	c-0.68-0.35-0.8-0.54-0.94-1.49c-0.09-0.6-0.13-2.82-0.09-4.93c0.08-4.23,0.1-4.15-1.37-4.73c-0.4-0.16-0.72-0.36-0.72-0.46
	s-0.3-0.28-0.67-0.41l-0.67-0.23v4.56c0,5.32,0.13,5.12-2.46,3.72l-1.55-0.84l-0.01-4.9l-0.01-4.9l-0.72-0.48
	c-0.4-0.26-1.2-0.75-1.78-1.08l-1.06-0.6v4.6c0,5.22-0.01,5.24-1.61,4.28c-0.53-0.31-1.23-0.68-1.57-0.82l-0.61-0.25V65.6v-4.98
	l-1.06-0.6c-0.58-0.33-1.43-0.84-1.89-1.13l-0.84-0.53v4.53c0,2.93-0.08,4.61-0.24,4.77c-0.24,0.24-1.13-0.12-2.82-1.16l-0.72-0.44
	l0-4.9l0-4.9l-0.72-0.44c-0.4-0.24-1.02-0.57-1.39-0.73c-0.36-0.16-0.84-0.46-1.06-0.66c-0.38-0.34-0.4-0.16-0.4,4.15
	c0,3.71-0.06,4.57-0.33,4.84c-0.3,0.3-0.37,0.3-0.68-0.02c-0.19-0.19-0.44-0.35-0.55-0.35c-0.11,0-0.68-0.3-1.27-0.68l-1.07-0.68
	l-0.11-4.93l-0.11-4.93l-0.67-0.39c-0.37-0.22-1.15-0.65-1.73-0.97l-1.06-0.58v4.33c0,2.38-0.06,4.49-0.14,4.68
	c-0.13,0.35-0.98,0.51-0.98,0.19c0-0.09-0.65-0.51-1.45-0.94l-1.45-0.77v-4.95V47.5l-0.72-0.37c-0.4-0.2-1.23-0.68-1.84-1.06
	c-0.61-0.38-1.52-0.91-2.01-1.18c-0.49-0.27-1.79-1.02-2.9-1.67c-1.96-1.15-2.31-1.35-4.35-2.51c-0.55-0.31-1.96-1.12-3.12-1.8
	c-3.77-2.19-7.29-4.17-7.44-4.17c-0.08,0-0.14,6.8-0.14,15.12v15.12l0.5,0.26c0.28,0.14,0.87,0.49,1.33,0.76
	C3.45,66.28,4.7,67,5.78,67.6c1.08,0.6,2.01,1.17,2.07,1.26c0.06,0.09,0.49,0.32,0.95,0.51l0.84,0.35v2.13
	c0,2.07-0.01,2.13-0.51,2.13c-0.28,0-0.71-0.14-0.95-0.31c-0.24-0.17-0.84-0.54-1.33-0.82c-0.49-0.28-1.29-0.74-1.78-1.02
	c-0.49-0.28-1.36-0.76-1.93-1.07c-0.57-0.31-1.11-0.66-1.18-0.79c-0.08-0.12-0.28-0.23-0.46-0.23c-0.26,0-0.32,0.41-0.32,1.99
	c0,1.88,0.03,2.01,0.54,2.28c0.97,0.53,4.85,2.73,5.67,3.23c0.45,0.27,1.14,0.66,1.53,0.88l0.72,0.39v2.05
	c0,2.31-0.23,2.64-1.29,1.9c-1-0.69-2.11-1.33-3-1.71c-0.46-0.2-0.84-0.45-0.84-0.55c0-0.1-0.21-0.25-0.48-0.34
	c-0.26-0.08-0.93-0.44-1.49-0.8c-0.56-0.35-1.1-0.64-1.19-0.64c-0.1,0-0.18,0.9-0.18,1.99v1.99l1.73,0.95
	c0.95,0.52,1.78,1.01,1.84,1.09s0.51,0.32,1,0.55c0.49,0.23,0.94,0.48,1,0.56c0.06,0.08,0.74,0.49,1.5,0.91l1.39,0.76v1.93
	c0,1.48-0.08,1.99-0.35,2.22c-0.23,0.19-0.4,0.21-0.5,0.07c-0.08-0.12-0.45-0.38-0.82-0.57c-0.71-0.36-3.13-1.75-4.24-2.43
	c-0.96-0.59-2.3-1.32-2.44-1.32c-0.07,0-0.12,0.9-0.12,2v2l1.06,0.57c2.09,1.13,2.84,1.56,2.95,1.68c0.06,0.07,1.09,0.66,2.28,1.32
	l2.17,1.19v1.95c0,1.76-0.04,1.97-0.45,2.1c-0.28,0.09-0.73-0.03-1.17-0.31c-1-0.62-4.71-2.73-5.7-3.23
	c-0.45-0.23-0.89-0.53-0.98-0.67c-0.09-0.14-0.17,8.6-0.17,19.41l0,19.67L2,135.27c0.46,0.25,1.24,0.7,1.73,1
	c0.49,0.3,1.34,0.81,1.89,1.12c0.55,0.31,1.5,0.86,2.12,1.21c0.61,0.35,1.42,0.81,1.78,1.01c0.37,0.2,1.13,0.64,1.69,0.97
	s1.46,0.84,2.01,1.13c0.54,0.29,1.13,0.65,1.32,0.79s0.61,0.38,0.95,0.53c0.55,0.23,0.59,0.22,0.4-0.12
	c-0.11-0.21-0.37-1.99-0.57-3.95c-0.29-2.82-0.31-3.92-0.12-5.24c0.31-2.11,1.28-4.1,2.04-4.17c0.59-0.05,1.75,0.35,1.75,0.59
	c0,0.09,0.43,0.35,0.95,0.58s1.05,0.5,1.17,0.6c0.46,0.37,2.81,1.7,3.24,1.84c0.24,0.08,0.44,0.23,0.44,0.35s0.09,0.21,0.19,0.21
	c0.1,0,1.03,0.5,2.06,1.1c1.03,0.61,2.27,1.31,2.76,1.57c0.49,0.26,1.29,0.71,1.78,1.01c0.49,0.3,1.34,0.79,1.89,1.1
	c1.65,0.92,1.8,1.12,2.6,3.49c1.31,3.86,1.28,8.21-0.08,10.68c-0.3,0.55-0.7,1.13-0.89,1.27c-0.29,0.23-0.26,0.3,0.18,0.53
	c0.29,0.15,0.57,0.33,0.63,0.41c0.06,0.07,0.46,0.31,0.89,0.53c0.43,0.22,1.18,0.63,1.67,0.92c1.19,0.7,2.67,1.56,3.9,2.26
	c0.55,0.31,1.4,0.8,1.89,1.09s1.34,0.77,1.89,1.08s1.4,0.78,1.89,1.05c0.49,0.27,0.72,0.35,0.5,0.17c-0.23-0.19-0.39-0.63-0.39-1.1
	c0-0.43-0.08-0.85-0.17-0.94c-0.09-0.09-0.19-0.69-0.21-1.32c-0.03-0.63-0.11-2.14-0.19-3.36c-0.09-1.36-0.05-2.7,0.11-3.5
	c0.29-1.48,1.24-3.32,1.7-3.32c0.17,0,0.32-0.11,0.32-0.24c0-0.21,3.52,1.56,4.12,2.07c0.19,0.16,4.21,2.48,6.47,3.73
	c0.37,0.2,1.25,0.72,1.97,1.14c2.26,1.33,3.36,1.96,4.05,2.31c1.09,0.56,1.36,0.86,1.66,1.8c0.15,0.49,0.41,1.19,0.57,1.56
	c0.78,1.75,1.09,6.81,0.55,8.83c-0.41,1.55-1.42,3.2-1.81,2.97c-0.11-0.07-0.19-0.03-0.19,0.08c0,0.11,0.33,0.37,0.72,0.59
	c0.85,0.46,1.58,0.88,3.36,1.93c1.4,0.82,1.72,1.01,6.17,3.52c1.59,0.9,2.95,1.73,3.02,1.84c0.07,0.11,0.22,0.2,0.33,0.2
	c0.3,0,0.26-1.06-0.04-1.16c-0.61-0.2-0.95-7.91-0.43-9.75c0.35-1.25,1.52-3.06,1.98-3.06c0.19,0,0.91,0.33,1.59,0.73
	c0.68,0.4,2.04,1.19,3.02,1.75c0.98,0.56,2.28,1.32,2.9,1.68c0.61,0.36,1.95,1.14,2.97,1.72c1.02,0.58,2.33,1.34,2.9,1.67
	c0.57,0.34,1.44,0.82,1.93,1.07c1.64,0.84,2.64,1.65,2.84,2.33c0.11,0.37,0.35,0.98,0.52,1.37c0.45,1,1.24,5.95,1.09,6.81
	c-0.43,2.49-0.8,3.77-1.32,4.53c-0.33,0.48-0.7,0.94-0.83,1.02c-0.14,0.09,0.16,0.37,0.71,0.67c0.53,0.29,1.37,0.75,1.87,1.03
	c0.5,0.28,1.38,0.78,1.94,1.11c0.94,0.56,3.44,1.99,5.91,3.4c0.54,0.31,2.11,1.21,3.49,2.01s2.65,1.53,2.84,1.62
	c0.18,0.1,0.53,0.3,0.78,0.45c0.25,0.15,1.23,0.72,2.18,1.27c0.96,0.55,2.07,1.2,2.48,1.44c0.41,0.25,1.63,0.95,2.7,1.56
	c1.08,0.61,2.42,1.38,2.98,1.71c0.56,0.33,1.42,0.82,1.91,1.09c0.49,0.27,0.94,0.55,1,0.63c0.06,0.08,0.46,0.32,0.89,0.54
	c0.43,0.22,1.28,0.7,1.89,1.06s1.37,0.79,1.67,0.94c0.31,0.15,1.14,0.63,1.85,1.05c1.71,1.02,3.14,1.75,3.25,1.65
	C140.29,214.67,140.34,209.74,140.36,203.77L140.36,203.77z M99.94,166.9c-0.66-0.23-1.36-0.55-1.56-0.72s-1.16-0.74-2.14-1.27
	s-1.83-1.02-1.89-1.09s-0.48-0.33-0.94-0.57c-1.97-1.06-4.75-2.65-4.86-2.77c-0.06-0.07-0.48-0.33-0.94-0.58
	c-1.04-0.56-4.85-2.74-5.93-3.39c-0.45-0.27-1.23-0.72-1.74-1c-1.33-0.74-2.97-1.68-3.92-2.24c-0.45-0.27-1.71-0.99-2.79-1.59
	c-1.08-0.6-2.01-1.17-2.07-1.26c-0.06-0.09-0.54-0.34-1.06-0.54c-0.52-0.21-0.95-0.46-0.95-0.56c0-0.1-0.2-0.25-0.44-0.32
	c-0.42-0.13-2.76-1.46-3.24-1.83c-0.12-0.1-0.57-0.35-1-0.57c-0.43-0.22-1.28-0.7-1.89-1.06c-0.61-0.36-1.52-0.87-2.01-1.14
	s-0.94-0.55-1-0.63c-0.06-0.08-0.46-0.33-0.89-0.54c-0.43-0.22-0.98-0.51-1.23-0.66c-0.25-0.15-1.58-0.92-2.96-1.71
	c-1.39-0.79-3.49-2.02-4.68-2.71c-1.19-0.7-2.51-1.43-2.94-1.62c-0.42-0.2-0.83-0.44-0.89-0.53c-0.1-0.15-1.94-1.21-4.87-2.81
	c-0.45-0.25-0.95-0.57-1.11-0.72c-0.16-0.15-0.38-0.28-0.47-0.28c-0.18,0-2.6-1.39-3.02-1.73c-0.12-0.1-0.56-0.32-0.97-0.49
	c-0.41-0.17-0.86-0.42-1-0.56c-0.14-0.14-0.56-0.41-0.93-0.6c-1.49-0.77-4.91-2.73-5.02-2.87c-0.06-0.08-0.51-0.33-1-0.56
	c-0.49-0.23-0.94-0.47-1-0.55c-0.06-0.08-0.9-0.58-1.86-1.13c-0.96-0.54-2.22-1.26-2.79-1.59c-0.57-0.33-1.44-0.83-1.94-1.11
	c-1.76-1-2.23-1.37-3.24-2.6c-1.11-1.36-2.06-3.1-2.43-4.46c-0.16-0.58-0.23-8.78-0.24-24.74c0-25.91-0.07-24.44,1.21-25.64
	c0.79-0.74,2.62-0.9,3.83-0.32c1.21,0.57,3.97,2.14,4.11,2.33c0.06,0.09,0.46,0.32,0.89,0.52c0.83,0.39,2.41,1.31,2.79,1.62
	c0.12,0.1,0.65,0.38,1.17,0.61c0.52,0.23,0.95,0.49,0.95,0.58c0,0.09,0.43,0.34,0.95,0.57s1,0.48,1.06,0.55
	c0.06,0.07,0.91,0.57,1.89,1.11c0.98,0.54,1.9,1.09,2.04,1.23c0.14,0.14,0.59,0.39,1,0.56c0.41,0.17,0.79,0.36,0.85,0.44
	c0.06,0.08,0.89,0.58,1.85,1.13c0.95,0.54,2.21,1.26,2.79,1.59c2.42,1.39,3.27,1.87,4.04,2.26c0.44,0.23,0.86,0.49,0.92,0.59
	c0.06,0.09,0.48,0.36,0.93,0.59c1.58,0.8,4.75,2.61,4.86,2.77c0.06,0.09,0.46,0.33,0.89,0.53c0.85,0.4,2.43,1.32,2.79,1.63
	c0.12,0.11,0.56,0.33,0.97,0.5c0.41,0.17,0.86,0.42,1,0.56c0.14,0.14,0.56,0.41,0.93,0.6c1.27,0.66,4.9,2.72,5.02,2.85
	c0.06,0.07,0.48,0.33,0.94,0.57c2.39,1.29,4.76,2.66,4.86,2.81c0.07,0.1,0.52,0.34,1,0.55c0.49,0.2,0.93,0.44,1,0.53
	c0.06,0.09,0.99,0.65,2.07,1.26c1.08,0.6,2.33,1.32,2.79,1.59c0.45,0.27,1.24,0.72,1.74,1c1.38,0.76,2.99,1.68,3.99,2.28
	c0.49,0.29,1.29,0.76,1.78,1.03c0.49,0.27,0.94,0.56,1,0.63c0.06,0.08,0.54,0.33,1.06,0.56c0.52,0.23,0.95,0.49,0.95,0.57
	c0,0.09,0.45,0.34,1,0.57c0.55,0.23,1,0.49,1,0.58s0.2,0.23,0.44,0.3c0.43,0.14,2.8,1.48,3.24,1.84c0.12,0.1,0.56,0.32,0.97,0.49
	c0.41,0.17,0.86,0.42,1,0.56c0.14,0.14,1.06,0.69,2.04,1.23c0.98,0.54,1.83,1.04,1.89,1.12c0.06,0.08,0.43,0.27,0.82,0.43
	c0.92,0.37,2.59,2.03,3.55,3.52c0.42,0.65,0.76,1.24,0.76,1.31c0,0.07,0.23,0.59,0.5,1.17l0.5,1.05v24.3v24.3l-0.63,0.82
	c-0.41,0.54-0.98,0.94-1.66,1.17c-0.57,0.19-1.09,0.34-1.16,0.32C101.2,167.33,100.6,167.13,99.94,166.9z M102.62,165.71
	c0.89-0.61,1.4-1.87,0.57-1.43c-0.26,0.14-0.89,0.18-1.52,0.1c-1.04-0.14-1.09-0.12-1.44,0.57c-0.35,0.67-0.35,0.73,0.03,1.01
	C100.87,166.41,101.73,166.32,102.62,165.71L102.62,165.71z M99.86,163.49c-0.03-0.01-0.36-0.19-0.73-0.4
	c-0.37-0.21-1.52-0.85-2.56-1.43c-1.04-0.58-1.94-1.12-2.01-1.2c-0.06-0.08-0.45-0.28-0.85-0.44c-0.41-0.17-0.86-0.42-1-0.56
	c-0.14-0.14-1.06-0.69-2.04-1.23c-0.98-0.54-1.83-1.03-1.89-1.1s-0.51-0.33-1-0.57c-0.49-0.24-0.94-0.5-1-0.57
	c-0.06-0.07-0.91-0.57-1.89-1.1c-0.98-0.53-1.83-1.03-1.89-1.11c-0.06-0.08-0.46-0.32-0.89-0.53c-0.43-0.22-0.98-0.52-1.23-0.66
	c-0.25-0.15-1.2-0.69-2.12-1.22c-0.92-0.52-2.07-1.19-2.56-1.49c-1.29-0.78-4.91-2.83-5.87-3.32c-0.45-0.23-0.87-0.49-0.93-0.58
	c-0.11-0.16-3.3-1.97-4.86-2.77c-0.45-0.23-0.87-0.49-0.93-0.57c-0.06-0.09-0.91-0.59-1.89-1.13c-0.98-0.53-1.83-1.03-1.89-1.11
	c-0.06-0.08-0.45-0.28-0.85-0.44c-0.41-0.17-0.86-0.42-1-0.56c-0.14-0.14-0.56-0.41-0.93-0.6c-0.6-0.31-4.27-2.41-5.2-2.97
	c-0.21-0.12-1.51-0.88-2.9-1.67c-1.39-0.79-2.99-1.72-3.57-2.05c-0.57-0.33-1.49-0.86-2.04-1.18s-1.5-0.87-2.12-1.22
	c-0.61-0.36-1.42-0.81-1.78-1c-0.37-0.19-1.51-0.85-2.54-1.46c-1.03-0.61-1.96-1.11-2.06-1.11c-0.1,0-0.19-0.09-0.19-0.19
	c0-0.1-0.38-0.36-0.84-0.56c-0.83-0.37-2.42-1.28-2.84-1.63c-0.12-0.1-0.65-0.38-1.17-0.61c-0.52-0.23-0.95-0.49-0.95-0.58
	c0-0.09-0.43-0.34-0.95-0.57c-0.52-0.23-1-0.48-1.06-0.56s-0.46-0.32-0.89-0.54s-0.83-0.46-0.89-0.55
	c-0.06-0.08-0.45-0.28-0.85-0.45c-0.41-0.17-0.86-0.41-1.01-0.54c-0.29-0.27-1.6-1.02-1.77-1.02c-0.06,0-0.23,0.3-0.38,0.67
	c-0.15,0.37-0.37,0.67-0.47,0.67c-0.5,0-0.11,0.48,0.75,0.92c0.52,0.26,1,0.54,1.06,0.62c0.06,0.08,0.46,0.33,0.89,0.56
	c0.85,0.46,1.96,1.08,3.68,2.04c0.61,0.34,1.16,0.68,1.23,0.76c0.06,0.07,0.54,0.32,1.06,0.55c0.52,0.23,0.95,0.49,0.95,0.59
	c0,0.09,0.28,0.28,0.61,0.41c0.34,0.13,1.62,0.84,2.84,1.56c1.97,1.17,3.58,2.09,7.58,4.37c0.61,0.35,1.42,0.82,1.78,1.04
	c0.37,0.22,1.12,0.66,1.67,0.97c0.55,0.31,1.5,0.86,2.12,1.22c0.61,0.36,1.42,0.8,1.78,0.99c0.37,0.19,1.22,0.69,1.89,1.12
	c0.67,0.43,1.6,0.94,2.06,1.14c0.46,0.2,0.84,0.45,0.84,0.55c0,0.1,0.2,0.25,0.44,0.32c0.42,0.13,2.77,1.47,3.24,1.84
	c0.12,0.1,0.65,0.37,1.17,0.6c0.52,0.23,0.95,0.49,0.95,0.57s0.43,0.33,0.95,0.56c0.52,0.23,1,0.48,1.06,0.56
	c0.11,0.14,1.03,0.67,3.5,2.03c1.88,1.03,2.18,1.2,2.29,1.33c0.06,0.07,1.16,0.72,2.45,1.45c1.29,0.73,2.5,1.43,2.7,1.55
	c0.2,0.12,0.85,0.5,1.45,0.85c0.6,0.34,1.59,0.91,2.2,1.26c0.61,0.35,1.47,0.84,1.89,1.08c0.93,0.52,4.56,2.61,5.89,3.39
	c0.52,0.31,1.83,1.06,2.9,1.67c1.07,0.61,2.38,1.37,2.91,1.67c0.53,0.31,2.2,1.26,3.72,2.11c1.51,0.85,2.85,1.64,2.97,1.74
	c0.12,0.11,0.82,0.53,1.55,0.94l1.33,0.75l0.51-0.9C99.69,163.93,99.9,163.51,99.86,163.49L99.86,163.49z M103.26,162.91
	c0.45-0.45,0.45-0.62,0.39-23.46l-0.06-23.01l-0.63-1.23c-1.38-2.67-3.01-4.44-5.05-5.46c-0.43-0.22-0.83-0.47-0.89-0.56
	c-0.06-0.09-0.46-0.33-0.89-0.53c-0.83-0.39-2.41-1.31-2.79-1.62c-0.12-0.1-0.65-0.38-1.17-0.61c-0.52-0.23-0.95-0.49-0.95-0.58
	s-0.45-0.34-1-0.57c-0.55-0.23-1-0.49-1-0.58s-0.2-0.23-0.44-0.3c-0.43-0.14-2.8-1.48-3.24-1.84c-0.12-0.1-0.56-0.32-0.97-0.49
	c-0.41-0.17-0.86-0.42-1-0.56c-0.14-0.14-1.06-0.69-2.04-1.23c-0.98-0.54-1.83-1.04-1.89-1.11c-0.06-0.08-0.51-0.32-1-0.55
	c-0.49-0.23-0.94-0.48-1-0.56c-0.1-0.13-1.53-0.96-4.98-2.86c-0.51-0.28-1.33-0.76-1.82-1.05c-0.49-0.3-1.34-0.8-1.89-1.11
	c-0.55-0.32-1.4-0.81-1.89-1.11c-0.49-0.29-1.29-0.76-1.78-1.03c-0.49-0.27-0.94-0.56-1-0.63s-0.54-0.33-1.06-0.56
	c-0.52-0.23-0.95-0.49-0.95-0.57s-0.45-0.34-1-0.57s-1-0.49-1-0.58c0-0.09-0.2-0.23-0.44-0.3c-0.41-0.13-2.73-1.44-3.24-1.83
	c-0.13-0.1-0.63-0.37-1.11-0.62c-0.49-0.24-0.94-0.5-1-0.58c-0.06-0.07-1-0.63-2.09-1.23c-1.09-0.6-2.44-1.37-3.01-1.7
	c-0.56-0.33-1.38-0.78-1.81-1c-0.43-0.22-0.83-0.46-0.89-0.53c-0.06-0.07-0.9-0.57-1.87-1.11c-0.97-0.54-2.22-1.26-2.79-1.6
	c-0.57-0.33-1.48-0.87-2.03-1.18c-0.55-0.31-1.48-0.84-2.06-1.17c-0.58-0.33-2.29-1.3-3.79-2.15c-1.5-0.85-2.86-1.68-3.02-1.84
	c-0.16-0.16-0.37-0.29-0.46-0.29s-1.36-0.7-2.83-1.55c-1.46-0.85-3.01-1.73-3.44-1.94c-0.43-0.21-0.83-0.45-0.89-0.52
	c-0.33-0.4-3.22-1.81-3.75-1.83c-0.95-0.03-1.56,0.42-1.71,1.22c-0.07,0.4-0.1,11-0.07,23.57L18,112.65l0.72,1.38
	c0.77,1.47,1.98,2.8,3.07,3.36c0.37,0.19,0.72,0.4,0.78,0.48c0.06,0.07,0.46,0.32,0.89,0.54c0.43,0.22,1.28,0.69,1.89,1.06
	c0.61,0.36,1.52,0.87,2.01,1.14c0.49,0.26,0.94,0.55,1,0.63c0.06,0.08,0.46,0.33,0.89,0.54c0.43,0.22,0.98,0.51,1.23,0.66
	s1.55,0.9,2.9,1.67c1.35,0.77,3.46,1.99,4.68,2.72c1.23,0.73,2.58,1.48,3,1.67c0.42,0.19,0.83,0.43,0.89,0.53
	c0.1,0.15,1.94,1.21,4.87,2.81c0.45,0.25,0.87,0.5,0.93,0.57c0.06,0.07,1.37,0.82,2.9,1.66c1.53,0.84,2.84,1.6,2.9,1.68
	c0.06,0.08,0.51,0.34,1,0.56s0.99,0.5,1.11,0.6c0.42,0.34,2.84,1.73,3.02,1.73c0.1,0,0.32,0.13,0.48,0.28
	c0.17,0.15,0.51,0.4,0.77,0.54c0.26,0.15,1.66,0.94,3.11,1.76c3.1,1.75,3.1,1.75,5.99,3.44c1.23,0.72,3.52,2.04,5.09,2.94
	c1.57,0.9,3.2,1.83,3.61,2.08c0.41,0.25,1.72,1,2.9,1.67c1.18,0.67,2.59,1.48,3.12,1.78c0.53,0.31,2.1,1.21,3.49,2
	c1.39,0.79,2.69,1.55,2.89,1.67c0.75,0.46,4.24,2.47,4.93,2.83c0.39,0.21,0.82,0.46,0.94,0.57c0.28,0.24,5.02,2.86,5.46,3.02
	C102.16,163.45,102.82,163.35,103.26,162.91L103.26,162.91z M20,118.64l0.34-0.81l-1.02-1.09c-1-1.07-2.2-3.32-2.36-4.42
	c-0.07-0.48-0.21-0.57-1.03-0.63c-0.71-0.05-0.95,0.01-0.95,0.26c0,0.78,0.99,3.41,1.69,4.51c0.75,1.17,2.46,2.99,2.81,2.99
	C19.58,119.45,19.81,119.08,20,118.64L20,118.64z M16.79,110.25c0.01-0.15,0.04-9.83,0.06-21.51l0.03-21.23l-1.06,0h-1.06v21.51
	v21.51h1C16.41,110.53,16.78,110.43,16.79,110.25L16.79,110.25z M16.98,65.9c0.14-0.4,0.52-1,0.84-1.34l0.59-0.62h-0.95
	c-1.27,0-1.69,0.26-2.12,1.34c-0.5,1.26-0.47,1.34,0.51,1.34C16.64,66.62,16.75,66.54,16.98,65.9L16.98,65.9z M157.76,214.63
	c0.32-0.12,0.53-0.32,0.46-0.43c-0.1-0.16-3.42-2.09-4.19-2.43c-0.09-0.04-0.17,0.23-0.17,0.59c0,0.68,0.23,0.88,2.34,2.09
	C157,214.91,157.02,214.91,157.76,214.63L157.76,214.63z M164.63,214.5c1.18-0.4,3.42-1.57,3.62-1.89c0.21-0.34-0.12-1.1-0.47-1.1
	c-0.18,0-0.5-0.11-0.72-0.25c-0.32-0.2-0.56-0.13-1.24,0.32c-1.56,1.06-3.83,1-5.94-0.15c-2.02-1.1-3.23-1.8-3.34-1.93
	c-0.06-0.07-0.46-0.31-0.89-0.52c-0.43-0.21-1.01-0.54-1.28-0.74c-0.5-0.36-0.5-0.36-0.5,0.78c0,1.07,0.05,1.17,0.84,1.66
	c0.46,0.29,0.99,0.6,1.17,0.69c0.18,0.09,0.8,0.43,1.36,0.76C162,214.91,162.73,215.14,164.63,214.5L164.63,214.5z M179.64,212.14
	c1-1.02,2.01-2.07,2.25-2.32c0.63-0.69,2.53-3.38,2.94-4.18c0.2-0.39,0.49-0.9,0.63-1.15c0.22-0.36,0.87-1.77,1.35-2.9
	c0.05-0.12-0.23,0.22-0.63,0.75c-0.4,0.54-1.55,1.79-2.56,2.79l-1.84,1.81l-0.14,1.41c-0.12,1.16-0.26,1.53-0.79,2.06
	c-0.36,0.36-0.71,0.65-0.79,0.65s-0.66,0.36-1.3,0.8c-1.02,0.7-1.62,1.55-1.71,2.39C177.02,214.63,177.91,213.91,179.64,212.14
	L179.64,212.14z M169.68,211.73c0-0.2-0.93-0.48-1.09-0.33c-0.06,0.06,0.01,0.1,0.16,0.1c0.14,0,0.26,0.15,0.26,0.33
	c0,0.2,0.13,0.28,0.33,0.2C169.53,211.96,169.68,211.83,169.68,211.73L169.68,211.73z M171.24,211.75c0-0.11-0.15-0.26-0.33-0.33
	c-0.34-0.13-0.46,0.11-0.19,0.38C170.94,212.02,171.24,211.99,171.24,211.75z M179.3,210.27l0.59-0.48l-1.48-0.82
	c-0.83-0.46-1.52-0.72-1.56-0.59c-0.04,0.13-0.22,0.24-0.39,0.24c-0.17,0-0.32,0.11-0.32,0.24c0,0.17-0.59,0.19-1.95,0.08
	l-1.95-0.16l0.56,0.43c0.31,0.24,0.91,0.61,1.34,0.83c0.43,0.22,1.27,0.68,1.87,1.02l1.09,0.62l0.81-0.46
	C178.35,210.96,178.98,210.54,179.3,210.27L179.3,210.27z M165.4,210.7l0.59-0.39l-0.66-0.19c-0.37-0.11-0.99-0.36-1.4-0.56
	c-0.7-0.35-0.77-0.34-1.56,0.14c-0.46,0.27-1,0.55-1.22,0.62c-0.62,0.2-0.46,0.45,0.45,0.71
	C162.73,211.35,164.68,211.18,165.4,210.7L165.4,210.7z M171.24,210.62c0-0.12-0.1-0.22-0.22-0.22c-0.12,0-0.22,0.1-0.22,0.22
	s0.1,0.22,0.22,0.22S171.24,210.74,171.24,210.62z M171.86,210.17c-0.15-0.25-0.37-0.45-0.48-0.45c-0.11,0-0.02,0.2,0.2,0.45
	c0.22,0.25,0.44,0.45,0.48,0.45C172.1,210.62,172.01,210.41,171.86,210.17L171.86,210.17z M169.68,209.96c0-0.24,0.22-0.59,0.5-0.78
	c0.91-0.64-0.13-0.38-1.19,0.29c-0.55,0.35-1.15,0.69-1.33,0.76c-0.18,0.07,0.2,0.14,0.85,0.15
	C169.53,210.39,169.68,210.34,169.68,209.96z M161.02,209.3l1.13-0.65l-0.53-0.34c-0.29-0.19-0.8-0.46-1.14-0.62
	c-0.34-0.15-0.61-0.36-0.61-0.46c0-0.1-0.08-0.19-0.19-0.19c-0.1,0-1.42-0.7-2.92-1.56c-1.5-0.86-2.77-1.56-2.82-1.56
	c-0.05,0-0.09,0.65-0.09,1.45v1.45l1.24,0.73c0.68,0.4,1.66,0.96,2.17,1.24c0.51,0.28,1.18,0.66,1.49,0.83
	C159.53,210.06,159.73,210.04,161.02,209.3L161.02,209.3z M167.19,208.22c0.45-0.46,1.04-1.14,1.32-1.5
	c0.28-0.37,0.78-1.03,1.11-1.48c2.28-3.03,4.29-8.2,5.09-13.12c0.3-1.83,0.5-7.69,0.27-7.92c-0.11-0.11-1.51,0.38-2.23,0.78
	c-0.41,0.23-4.3,1.5-6.76,2.21c-0.86,0.25-2.41,0.6-3.46,0.79c-1.04,0.19-2.35,0.43-2.9,0.55c-0.55,0.11-2.08,0.28-3.4,0.37
	l-2.4,0.16v6.87v6.87l0.95,0.46c0.52,0.25,2.3,1.26,3.96,2.23C165.66,209.54,165.84,209.6,167.19,208.22L167.19,208.22z
	 M180.61,194.76v-14.07l-0.5,0.33c-0.28,0.18-0.73,0.47-1,0.64l-0.5,0.31l-0.01,10.59c-0.01,10.79-0.17,13.73-0.77,14.18
	c-0.38,0.28-0.45,0.76-0.11,0.76c0.12,0,0.7,0.3,1.28,0.66c0.58,0.37,1.18,0.67,1.34,0.67
	C180.55,208.83,180.61,205.87,180.61,194.76L180.61,194.76z M173.12,207.86c1.73,0.06,3.26,0.02,3.42-0.08
	c0.15-0.11,0.43-0.98,0.61-1.93c0.26-1.38,0.33-3.89,0.33-12.42v-10.69l-0.64,0.33l-0.64,0.33l-0.12,4.3
	c-0.08,2.78-0.24,4.73-0.45,5.53c-0.18,0.67-0.46,1.83-0.6,2.56c-0.15,0.74-0.4,1.64-0.56,2.01c-0.16,0.37-0.42,1.07-0.57,1.56
	c-0.31,1.02-2.38,5.1-3.13,6.19c-0.28,0.4-0.88,1.19-1.35,1.76c-1.03,1.26-1.06,1.43-0.14,0.87
	C169.91,207.79,170.29,207.75,173.12,207.86L173.12,207.86z M183.53,203.71c2.49-2.56,4.14-5.47,4.66-8.23
	c0.31-1.66,0.28-98.01-0.03-97.16c-0.12,0.34-0.32,0.61-0.43,0.61s-0.2,0.13-0.2,0.28c0,0.6-1.9,3.05-3.8,4.89l-2,1.94v3.45
	c0,3.94,0.15,3.6-2.25,5.17l-1.54,1v32.65c0,17.96,0.08,32.65,0.17,32.65c0.09,0,0.75-0.41,1.47-0.9c2.22-1.54,2.03-2.6,2.1,12.22
	c0.03,7.14,0.12,12.98,0.2,12.98C181.95,205.27,182.69,204.57,183.53,203.71L183.53,203.71z M141.95,190.94
	c1.53-0.83,6.7-3.82,8.95-5.18c0.4-0.24,0.72-0.5,0.72-0.59c0-0.13-2.18-1.43-4.7-2.79c-0.49-0.27-1.04-0.6-1.22-0.75
	c-0.25-0.21-0.48-0.19-1.08,0.09c-0.42,0.2-0.82,0.36-0.89,0.36c-0.13,0-2.16,0.9-4.26,1.9c-0.61,0.29-1.39,0.59-1.73,0.68
	c-0.34,0.08-0.61,0.22-0.61,0.3s-0.48,0.33-1.06,0.54c-0.58,0.21-1.55,0.62-2.15,0.91l-1.09,0.53l0.53,0.32
	c0.29,0.18,0.84,0.51,1.2,0.75c0.37,0.23,1.02,0.61,1.45,0.83c0.43,0.22,1.08,0.58,1.45,0.79c0.37,0.21,1.22,0.71,1.89,1.1
	c0.67,0.39,1.33,0.71,1.45,0.71C140.94,191.44,141.45,191.21,141.95,190.94z M99.32,189.72c0.35-1.3,0.36-1.57,0.02-1.7
	c-0.35-0.13-2.1,0.72-2.1,1.03c0,0.16,1.52,1.03,1.82,1.05C99.15,190.11,99.26,189.93,99.32,189.72L99.32,189.72z M97.4,187.28
	c0.32-0.49,0.4-1.09,0.4-3.18c0-2.68-0.4-4.47-0.83-3.71c-0.11,0.2-0.3,0.35-0.43,0.35c-0.13,0-0.93,0.6-1.78,1.34
	c-0.85,0.74-1.62,1.34-1.7,1.34c-0.08,0-0.14,0.42-0.13,0.93C92.99,186.85,96.27,189,97.4,187.28L97.4,187.28z M129.9,186.96
	c2.38-0.89,3.55-2.5,4.24-5.88c0.32-1.53,0.33-2.04,0.1-3.57c-0.35-2.32-0.9-4.84-1.11-5.13c-0.09-0.12-0.29-0.62-0.45-1.11
	c-0.44-1.38-1.79-3.92-3.22-6.04c-2.13-3.16-6.05-6.61-8.59-7.56c-0.55-0.21-1.23-0.48-1.5-0.61c-0.28-0.13-1.23-0.24-2.12-0.23
	c-1.28,0.01-1.8,0.11-2.51,0.52c-2.66,1.54-3.68,3.65-3.68,7.65c0,2.12,0.52,5.8,0.88,6.27c0.09,0.12,0.34,0.72,0.54,1.34
	c0.2,0.61,0.71,1.77,1.14,2.56c0.43,0.8,0.95,1.8,1.17,2.22c0.22,0.43,0.52,0.93,0.68,1.11c0.16,0.19,0.93,1.16,1.71,2.15
	c2.51,3.19,5.68,5.46,8.82,6.3C128.13,187.53,128.39,187.53,129.9,186.96L129.9,186.96z M100.41,185.94
	c0.68-0.62,0.7-1.66,0.05-4.39c-0.34-1.42-0.71-2.58-0.82-2.58s-0.49,0.16-0.83,0.36l-0.61,0.36l0.43,1.59
	c0.31,1.16,0.41,2.1,0.35,3.52l-0.08,1.93l0.57-0.22C99.77,186.39,100.2,186.13,100.41,185.94L100.41,185.94z M92.11,185.65
	c0-0.12-0.14-0.22-0.32-0.22c-0.18,0-0.45-0.13-0.61-0.29c-0.16-0.16-1.45-0.92-2.86-1.7c-1.41-0.78-2.71-1.54-2.9-1.68
	c-0.18-0.15-1.14-0.7-2.12-1.22c-1.36-0.72-1.62-0.81-1.11-0.38c0.37,0.32,0.73,0.58,0.81,0.58c0.11,0.01,3.1,1.7,8.11,4.61
	C92.14,185.95,92.11,185.94,92.11,185.65L92.11,185.65z M135.69,184.56c0.61-0.28,1.42-0.64,1.78-0.8c0.37-0.16,1.34-0.6,2.16-0.98
	c0.82-0.38,1.56-0.69,1.63-0.69c0.13,0,2.75-1.18,3.5-1.58c0.51-0.27,1.28-0.26,1.28,0.01c0,0.12,0.76,0.65,1.69,1.17
	s2.06,1.16,2.51,1.41c0.45,0.25,1.09,0.64,1.43,0.86l0.61,0.41v-11.62v-11.62l-0.56-0.25c-0.31-0.14-0.56-0.32-0.56-0.41
	s-0.43-0.34-0.95-0.57c-0.52-0.23-1-0.48-1.06-0.55c-0.06-0.07-0.86-0.56-1.78-1.08c-3.39-1.92-5.45-3.12-5.79-3.36
	c-0.19-0.13-0.66-0.42-1.05-0.63c-2.22-1.21-2.65-1.46-2.75-1.59c-0.06-0.08-0.54-0.33-1.06-0.56c-0.52-0.23-0.95-0.48-0.95-0.56
	c0-0.08-0.43-0.33-0.95-0.56c-0.52-0.23-1-0.48-1.06-0.56c-0.23-0.29-4.39-2.51-5.72-3.04c-4.85-1.94-9.13-0.81-11.45,3.03
	c-0.77,1.27-1.61,3.82-1.51,4.59c0.07,0.57,0.15,0.53,2.8-1.44c1.5-1.12,2.78-2.03,2.84-2.03c0.06,0,0.29-0.16,0.51-0.36
	c0.92-0.84,2.82-2.1,3.04-2.03c0.61,0.2,0.26,0.79-1.02,1.72c-1.8,1.3-3.57,2.61-3.86,2.83c-0.12,0.1-0.52,0.37-0.89,0.61
	c-0.37,0.24-0.92,0.66-1.22,0.95l-0.56,0.52h0.78c0.85,0,4.04,0.82,4.22,1.09c0.06,0.09,0.45,0.3,0.87,0.47
	c1.46,0.59,5.67,4.3,6.84,6.02c0.29,0.43,0.85,1.23,1.24,1.78c1.01,1.42,2.77,4.83,3.11,6.02c0.16,0.55,0.36,1.1,0.45,1.23
	c0.26,0.36,0.83,3.42,0.99,5.35c0.19,2.32-0.19,5.05-0.9,6.43c-0.31,0.59-0.56,1.12-0.56,1.16
	C133.8,185.42,133.88,185.38,135.69,184.56L135.69,184.56z M91.99,184.03c-0.12-0.3-0.48-0.53-3.56-2.25
	c-1.1-0.62-2.06-1.18-2.12-1.25c-0.06-0.07-0.51-0.35-1-0.62c-0.49-0.27-1.28-0.7-1.75-0.96c-0.92-0.51-1.44-0.4-0.7,0.15
	c0.25,0.18,1.25,0.78,2.23,1.33c0.98,0.55,1.93,1.09,2.12,1.21c0.96,0.62,4.59,2.66,4.73,2.66
	C92.03,184.31,92.05,184.19,91.99,184.03z M93.91,181.86c0.22,0,0.46-0.2,0.54-0.44c0.08-0.24,0.59-0.76,1.13-1.15
	c0.54-0.39,0.99-0.74,0.99-0.77c0-0.03-0.88-0.53-1.95-1.11c-1.07-0.58-2-1.13-2.06-1.22c-0.06-0.09-0.47-0.35-0.92-0.58
	c-1.64-0.85-2.76-1.48-2.87-1.63c-0.06-0.08-0.45-0.29-0.85-0.45c-0.41-0.17-0.86-0.42-1-0.56c-0.14-0.14-1.12-0.73-2.18-1.31
	l-1.92-1.05l-0.61,0.8c-0.6,0.79-0.68,1.33-0.52,3.44c0.04,0.54,1.08,1.78,1.5,1.78c0.11,0,0.84,0.4,1.62,0.89
	c0.78,0.49,1.82,1.09,2.31,1.35s1.89,1.04,3.1,1.74l2.21,1.28l0.55-0.51C93.26,182.09,93.69,181.86,93.91,181.86L93.91,181.86z
	 M98.86,178.12c0.37-0.33,0.37-0.36,0-0.7c-0.22-0.2-0.79-0.55-1.28-0.78c-0.49-0.23-0.94-0.48-1-0.57
	c-0.06-0.08-0.96-0.62-2.01-1.2c-1.04-0.57-2.3-1.29-2.79-1.59c-0.49-0.3-1.3-0.78-1.81-1.05c-0.88-0.48-2.76-1.55-3.72-2.1
	c-0.47-0.27-1.02-0.1-2.01,0.65c-0.38,0.29-0.31,0.36,0.89,1.02c0.72,0.39,1.7,0.95,2.2,1.24c1.23,0.72,6.56,3.79,8.58,4.95
	C97.65,178.97,97.86,178.98,98.86,178.12z M81.21,176.66c-0.17-0.17-0.24-0.05-0.24,0.44c0,0.88,0.31,1.19,0.41,0.41
	C81.41,177.17,81.34,176.79,81.21,176.66L81.21,176.66z M82.43,170.73c0.44-0.3,0.92-0.84,1.07-1.21c0.24-0.58,0.22-0.73-0.13-1.08
	c-0.22-0.22-0.54-0.4-0.72-0.4c-0.49,0-1.18,1.32-1.45,2.77c-0.32,1.73-0.3,1.93,0.1,1.13C81.49,171.57,82,171.03,82.43,170.73
	L82.43,170.73z M66.99,170.6c0.07-0.44,0.07-0.94,0.01-1.12c-0.14-0.37-0.67-0.43-0.78-0.09c-0.04,0.13-0.47,0.37-0.94,0.53
	l-0.87,0.3l0.65,0.4c0.36,0.22,0.85,0.52,1.09,0.67C66.73,171.64,66.84,171.55,66.99,170.6L66.99,170.6z M64.38,169.21
	c0.14-0.09,0.43-0.51,0.66-0.94c0.74-1.41,0.39-6.46-0.45-6.46c-0.34,0-1.18,0.61-2.3,1.66c-0.53,0.5-1.16,0.99-1.39,1.1
	c-0.31,0.15-0.43,0.43-0.43,1.03c0,1.43,0.86,2.69,2.25,3.32C63.79,169.41,64.02,169.45,64.38,169.21L64.38,169.21z M68.3,166.52
	c0.11-1.85-0.4-5.22-0.93-6.06c-0.18-0.29-0.28-0.29-0.83,0.05c-0.53,0.32-0.61,0.51-0.55,1.21c0.04,0.46,0.18,1.03,0.3,1.27
	c0.26,0.48,0.32,4.05,0.08,4.79c-0.14,0.45-0.11,0.44,0.87-0.1C68.03,167.24,68.27,166.97,68.3,166.52L68.3,166.52z M60.01,167.2
	c0-0.09-0.85-0.62-1.89-1.17c-1.04-0.55-1.89-1.06-1.89-1.13c0-0.18-1.15-0.69-1.28-0.56c-0.06,0.06,0.67,0.54,1.61,1.07
	c0.94,0.53,2.03,1.18,2.42,1.45C59.74,167.37,60.01,167.47,60.01,167.2L60.01,167.2z M59.34,165.15c0-0.12-0.43-0.43-0.95-0.7
	c-0.52-0.26-1-0.54-1.06-0.62c-0.06-0.08-0.48-0.34-0.94-0.58c-2.12-1.14-4.8-2.67-5.34-3.04c-0.33-0.23-0.71-0.41-0.85-0.41
	c-0.53,0-0.05,0.56,0.95,1.11c0.57,0.31,1.9,1.07,2.95,1.68c1.06,0.61,2.34,1.34,2.85,1.63c0.51,0.28,1.18,0.66,1.49,0.83
	C59.11,165.42,59.34,165.45,59.34,165.15L59.34,165.15z M54.56,164.04c-0.07-0.11-1-0.68-2.08-1.26c-1.07-0.58-2-1.12-2.06-1.21
	c-0.22-0.3-1.11-0.68-1.11-0.47c0,0.12,0.88,0.69,1.95,1.27c1.07,0.58,2.19,1.24,2.48,1.47C54.31,164.27,54.78,164.39,54.56,164.04
	L54.56,164.04z M62.02,162.43c2.37-1.9,2.61-1.44-2.14-4.07c-1.09-0.6-2.03-1.15-2.09-1.23c-0.06-0.07-0.46-0.32-0.89-0.56
	c-2.19-1.19-4.81-2.68-4.9-2.79c-0.16-0.17-1.61-0.93-1.65-0.86c-0.01,0.03-0.26,0.33-0.55,0.66c-0.69,0.78-0.94,3.33-0.39,3.88
	c0.19,0.19,0.35,0.48,0.35,0.63c0,0.15,0.33,0.45,0.72,0.66c0.4,0.21,1.2,0.65,1.78,0.99c0.58,0.33,2.19,1.26,3.57,2.06
	c1.38,0.8,2.68,1.52,2.88,1.6c0.2,0.08,0.43,0.26,0.51,0.39C59.52,164.26,60.06,164,62.02,162.43L62.02,162.43z M66.7,159.06
	c0-0.15-1.08-0.87-2.4-1.6c-1.32-0.73-2.45-1.39-2.51-1.48c-0.06-0.09-0.47-0.34-0.92-0.57c-0.97-0.5-2.57-1.41-4.1-2.31
	c-0.61-0.36-1.37-0.79-1.67-0.93c-0.31-0.15-0.78-0.44-1.06-0.65c-0.47-0.35-1.39-0.34-1.39,0.02c0,0.09-0.26,0.28-0.59,0.43
	c-0.32,0.15-0.52,0.34-0.43,0.43c0.16,0.16,0.88,0.59,4.11,2.43c1.03,0.59,2.3,1.32,2.82,1.63c1.01,0.59,4.29,2.48,5.64,3.25
	c0.8,0.45,0.83,0.46,1.65,0.05C66.32,159.52,66.7,159.21,66.7,159.06L66.7,159.06z M48.97,158.69c0.07-0.11,0.03-0.27-0.1-0.35
	c-0.12-0.08-0.23,0.02-0.23,0.21C48.65,158.95,48.78,159,48.97,158.69L48.97,158.69z M149.18,136.61v-21.4h-3.9h-3.9v19.26v19.26
	l0.95,0.48c0.52,0.27,1.35,0.73,1.84,1.02c1.61,0.97,4.75,2.72,4.96,2.77C149.15,158,149.18,148.38,149.18,136.61z M49.5,152.38
	c0.31-0.34,0.71-0.61,0.88-0.61c0.17,0,0.46-0.37,0.65-0.82c0.32-0.77,0.32-0.84-0.07-1.11c-0.23-0.16-0.51-0.37-0.63-0.48
	c-0.52-0.46-1.7,2.1-1.66,3.61c0.01,0.38,0.07,0.54,0.14,0.35C48.87,153.14,49.18,152.72,49.5,152.38L49.5,152.38z M34.55,151.94
	c0.31-1.45,0.17-1.51-1.83-0.77l-0.88,0.33l0.92,0.47c0.5,0.26,0.98,0.57,1.06,0.69C34.1,153.11,34.36,152.86,34.55,151.94z
	 M32.38,150.04c0.12-0.34,0.32-0.79,0.44-1c0.35-0.61,0.26-3.64-0.14-4.87c-0.39-1.2-0.99-1.47-1.42-0.65
	c-0.13,0.25-0.37,0.45-0.53,0.45s-0.48,0.25-0.71,0.56c-0.23,0.31-0.52,0.56-0.64,0.56c-0.12,0.01-0.45,0.19-0.72,0.42
	c-0.39,0.32-0.5,0.68-0.53,1.61c-0.03,1.07,0.04,1.28,0.65,1.89C30.46,150.71,31.99,151.14,32.38,150.04L32.38,150.04z M34.88,148.9
	c0.46-0.29,0.9-0.77,0.98-1.07c0.25-1-0.37-4.94-0.97-6.09c-0.16-0.31-0.29-0.44-0.29-0.31c0,0.14-0.29,0.37-0.64,0.52l-0.64,0.26
	l0.35,1.49c0.39,1.64,0.47,4.26,0.17,5.25C33.63,149.66,33.66,149.66,34.88,148.9L34.88,148.9z M27.34,148.37
	c-0.06-0.15-0.5-0.48-0.99-0.72c-1.39-0.71-4.79-2.62-4.91-2.77c-0.06-0.07-0.41-0.28-0.78-0.46c-0.37-0.18-0.82-0.44-1-0.58
	c-0.76-0.57-2.9-1.65-2.9-1.47c0,0.11,0.38,0.4,0.84,0.64c0.46,0.24,1.77,0.98,2.92,1.64c1.15,0.66,2.55,1.47,3.12,1.8
	c0.57,0.33,1.19,0.67,1.37,0.77c0.18,0.09,0.78,0.45,1.33,0.79C27.48,148.74,27.49,148.74,27.34,148.37L27.34,148.37z M26.63,146.19
	c-0.26-0.24-0.52-0.44-0.56-0.44c-0.09,0-3.34-1.86-4.72-2.7c-0.37-0.22-1.02-0.58-1.45-0.79s-1.02-0.57-1.31-0.79
	c-0.64-0.49-0.92-0.51-0.92-0.09c0,0.17,0.28,0.42,0.61,0.56c0.34,0.14,1.16,0.59,1.84,1.01c0.67,0.42,1.63,0.97,2.12,1.23
	c0.49,0.26,1.74,0.96,2.78,1.57C26.9,146.85,27.51,147.02,26.63,146.19L26.63,146.19z M169.35,145.84
	c-0.25-0.19-0.65-0.28-0.89-0.22c-0.25,0.07-0.57,0.12-0.72,0.12c-0.15,0-0.28,0.1-0.28,0.23s0.53,0.22,1.17,0.22
	C169.72,146.18,169.77,146.16,169.35,145.84L169.35,145.84z M174.36,144.42c2.06-0.97,2.1-1.05,0.9-1.74
	c-0.48-0.28-0.92-0.5-0.97-0.5c-0.05,0-0.16,0.3-0.23,0.67c-0.07,0.37-0.24,0.67-0.38,0.67c-0.13,0-0.39,0.15-0.58,0.33
	c-0.19,0.19-0.73,0.33-1.22,0.33c-0.49,0-1.2,0.16-1.59,0.36l-0.7,0.36l0.76,0.39c0.72,0.37,0.81,0.37,1.88-0.01
	C172.85,145.08,173.81,144.68,174.36,144.42L174.36,144.42z M28.7,144.62c0.07-0.22,0.4-0.57,0.73-0.78s0.68-0.52,0.78-0.69
	c0.1-0.16,0.37-0.3,0.6-0.3c0.23,0,0.45-0.18,0.5-0.39c0.09-0.43-0.41-0.9-1.61-1.5c-0.43-0.22-0.83-0.46-0.89-0.53
	c-0.06-0.07-0.48-0.34-0.94-0.58c-2.11-1.14-4.76-2.65-4.86-2.78c-0.06-0.08-0.45-0.28-0.85-0.44c-0.41-0.17-0.86-0.41-1-0.55
	c-0.14-0.14-0.93-0.63-1.76-1.09c-1.25-0.7-1.57-0.79-1.92-0.57c-0.56,0.35-0.93,2.37-0.66,3.62c0.11,0.51,0.2,1.1,0.2,1.32
	c0,0.21,0.1,0.39,0.22,0.39c0.12,0,1.33,0.63,2.68,1.39c3.23,1.83,3.77,2.14,5.85,3.35c1.5,0.87,1.83,0.98,2.28,0.78
	C28.34,145.12,28.63,144.84,28.7,144.62L28.7,144.62z M166.34,141.69v-3.4l-0.52,0.78c-0.89,1.33-1.1,2.11-0.99,3.66
	c0.08,1.19,0.2,1.53,0.64,1.9c0.3,0.25,0.61,0.45,0.7,0.45C166.26,145.08,166.34,143.55,166.34,141.69L166.34,141.69z
	 M169.12,144.15c0.73-0.33,0.71-0.45-0.1-0.93l-0.67-0.4v0.79C168.35,144.51,168.34,144.51,169.12,144.15L169.12,144.15z
	 M173.03,142.58c0-0.13-0.14-0.11-0.33,0.05c-0.18,0.15-0.33,0.31-0.33,0.35c0,0.04,0.15,0.02,0.33-0.05
	C172.88,142.86,173.03,142.7,173.03,142.58z M176.96,132.23c-0.05-0.05-0.57,0.16-1.17,0.46c-2.12,1.06-3.58,1.69-4.28,1.83
	c-0.39,0.08-0.71,0.22-0.71,0.32c0,0.1-0.23,0.25-0.5,0.34c-0.28,0.09-1.03,0.52-1.67,0.96l-1.17,0.81l0,2.39l0,2.39l0.75-0.49
	c0.42-0.27,1.07-0.67,1.45-0.87c0.43-0.23,0.69-0.56,0.69-0.84c0-0.66,0.43-0.57,2.18,0.44c0.85,0.49,1.65,0.89,1.78,0.89
	c0.13,0,0.36,0.15,0.51,0.34c0.16,0.19,0.7,0.53,1.2,0.76l0.91,0.42l0.06-5.03C177.02,134.57,177.01,132.27,176.96,132.23
	L176.96,132.23z M172.03,141.86c0.96-0.4,0.97-0.62,0.05-1.03c-0.66-0.29-0.79-0.28-1.5,0.12c-0.43,0.24-0.97,0.62-1.21,0.84
	c-0.42,0.38-0.4,0.4,0.73,0.4C170.73,142.18,171.61,142.04,172.03,141.86L172.03,141.86z M16.44,139.8
	c-0.15-1.2-0.56-1.66-0.56-0.63c0,0.31,0.1,0.56,0.22,0.56s0.24,0.53,0.25,1.17c0.02,0.64,0.08,0.93,0.13,0.63
	C16.54,141.23,16.52,140.46,16.44,139.8L16.44,139.8z M33.04,141.32c0-0.11,0.3-0.32,0.67-0.47c0.87-0.36,0.84-0.59-0.11-1.05
	c-0.43-0.2-0.78-0.44-0.78-0.53s-0.38-0.32-0.84-0.53c-0.46-0.2-1.39-0.71-2.06-1.12c-0.67-0.42-1.63-0.97-2.12-1.22
	c-0.49-0.26-1.26-0.69-1.7-0.96c-0.45-0.27-1.7-0.99-2.79-1.59c-1.09-0.6-2.03-1.18-2.1-1.28c-0.07-0.1-0.64,0.09-1.26,0.43
	l-1.14,0.62l1.87,1c1.03,0.55,1.88,1.07,1.88,1.16c0,0.09,0.08,0.17,0.19,0.17c0.1,0,1.43,0.72,2.95,1.6c1.52,0.88,3.12,1.78,3.55,2
	c0.43,0.22,0.93,0.51,1.11,0.64C31.85,141.22,33.04,141.73,33.04,141.32L33.04,141.32z M17.65,133.28c0.29-0.25,0.59-0.46,0.68-0.46
	s0.26-0.35,0.39-0.78c0.23-0.75,0.21-0.8-0.41-1.12c-0.36-0.19-0.76-0.27-0.89-0.19c-0.35,0.21-0.85,1.5-1.1,2.84
	c-0.12,0.64-0.27,1.36-0.34,1.6c-0.07,0.25,0.16,0.02,0.51-0.49C16.84,134.16,17.36,133.53,17.65,133.28L17.65,133.28z
	 M170.46,117.89c0.49-0.24,1.01-0.43,1.17-0.44c0.15-0.01,1.02-0.36,1.94-0.79c0.92-0.43,1.73-0.78,1.8-0.78
	c0.08,0,0.27-0.13,0.43-0.29c0.36-0.36,0.05-0.82-0.8-1.2c-0.65-0.29-0.86-0.19-0.86,0.39c0,0.51-1.78,1.54-2.64,1.54
	c-1.28,0-2.71,0.85-2.71,1.61C168.79,118.45,169.33,118.43,170.46,117.89L170.46,117.89z M169.34,115.97
	c0.28-0.11,0.3-0.21,0.1-0.45c-0.37-0.44-0.65-0.38-0.65,0.14C168.79,116.15,168.82,116.16,169.34,115.97z M178.81,113.85
	c0.74-0.51,1.29-1.01,1.22-1.12c-0.07-0.11-0.49-0.39-0.95-0.62c-0.72-0.37-0.9-0.38-1.38-0.12c-0.38,0.21-1.42,0.31-3.41,0.31
	c-2.52,0.01-2.93,0.06-3.43,0.45c-0.31,0.25-0.69,0.45-0.84,0.45c-0.15,0-0.45,0.2-0.67,0.45c-0.4,0.44-0.39,0.45,0.86,0.45
	c1.11,0,1.26-0.05,1.26-0.44c0-0.48,1.02-1.12,1.78-1.12c0.45,0,1.77,0.57,2.01,0.87c0.06,0.08,0.54,0.34,1.06,0.58
	c0.52,0.24,0.95,0.52,0.95,0.61C177.26,114.88,177.42,114.8,178.81,113.85L178.81,113.85z M149.06,113.43
	c-0.28-1.67-1.77-4.24-3.14-5.41l-0.72-0.62l-0.95,1.73c-0.52,0.95-1.03,1.77-1.13,1.81c-0.1,0.04-0.18,0.19-0.18,0.33
	c0,0.14-0.3,0.71-0.67,1.26c-1.19,1.79-1.21,1.78,3.14,1.78h3.81L149.06,113.43z M157.05,113.86c1.49-0.13,2.91-0.32,3.16-0.42
	c0.25-0.11,1.5-0.37,2.79-0.58c1.29-0.21,2.49-0.47,2.67-0.57c0.18-0.1,0.76-0.29,1.28-0.42c1.11-0.28,1.11-0.27,0.52-2.99
	c-0.24-1.08-0.38-2.1-0.31-2.27c0.06-0.17,0.53-0.41,1.04-0.55c0.51-0.13,1.23-0.38,1.59-0.54c0.37-0.17,1.1-0.44,1.62-0.6
	s0.95-0.37,0.95-0.46c0-0.09,0.12-0.17,0.26-0.17c0.14,0,0.99-0.37,1.89-0.82c1.87-0.94,1.84-0.81,0.72-3.5
	c-0.35-0.84-0.64-1.67-0.64-1.84c0-0.17-0.09-0.31-0.21-0.31c-0.11,0-0.28-0.23-0.36-0.5c-0.13-0.43-1.43-2.71-1.93-3.4
	c-1.31-1.8-3.04-3.81-4.12-4.8c-1.23-1.13-3-2.45-3.3-2.45c-0.13,0-1.93,1.14-2.12,1.34c-0.06,0.07-0.41,0.31-0.78,0.54
	c-2.58,1.63-8.23,7.02-10.53,10.05c-2.53,3.33-2.95,3.92-4.69,6.64c-0.62,0.97-0.74,1.71-0.28,1.71c0.31,0,1.41,1.21,2.21,2.46
	c0.44,0.68,1.05,2,1.36,2.95l0.56,1.72l1.97,0.01C153.45,114.1,155.56,114,157.05,113.86L157.05,113.86z M141.28,112.26
	c2.76-4.68,3.18-5.49,2.91-5.56c-0.22-0.06-1.73-0.9-6.28-3.52c-0.53-0.31-1.8-1.04-2.82-1.62c-1.02-0.59-3.31-1.91-5.09-2.94
	c-1.78-1.03-3.98-2.3-4.9-2.82c-0.92-0.52-1.72-1.01-1.78-1.09s-0.45-0.28-0.85-0.44c-0.41-0.17-0.86-0.42-1-0.56
	c-0.14-0.14-1.51-0.95-3.05-1.79s-2.84-1.6-2.9-1.68c-0.06-0.08-1.35-0.84-2.87-1.69c-1.52-0.85-3.18-1.8-3.7-2.1
	s-1.89-1.09-3.04-1.74c-1.15-0.65-2.39-1.36-2.76-1.59c-1.43-0.87-3.5-2.02-3.64-2.02c-0.08,0-0.7,0.96-1.37,2.13
	c-0.67,1.17-1.45,2.48-1.72,2.9c-0.87,1.34-0.88,1.8-0.02,2.21c0.41,0.2,1.25,0.65,1.86,1.01s1.57,0.91,2.12,1.22
	c0.55,0.32,1.37,0.8,1.83,1.07c0.45,0.27,1.71,0.99,2.79,1.59c1.08,0.6,2.01,1.16,2.07,1.23c0.06,0.08,0.54,0.32,1.06,0.55
	c0.52,0.23,0.95,0.5,0.95,0.59c0,0.1,0.2,0.24,0.44,0.31c0.42,0.13,2.77,1.47,3.24,1.84c0.12,0.1,0.65,0.37,1.17,0.6
	c0.52,0.23,0.95,0.5,0.95,0.59s0.28,0.28,0.61,0.41c0.34,0.13,1.37,0.7,2.28,1.25c0.92,0.56,1.95,1.12,2.28,1.25
	c0.34,0.13,0.61,0.33,0.61,0.44s0.08,0.2,0.18,0.2c0.2,0,5.14,2.75,5.5,3.06c0.12,0.11,0.37,0.26,0.56,0.34
	c0.18,0.08,1.54,0.85,3.01,1.7c4.38,2.54,8.33,4.79,9.13,5.2c0.41,0.21,0.82,0.49,0.89,0.61
	C140.2,113.87,140.47,113.64,141.28,112.26L141.28,112.26z M169.94,111.68c-0.81-0.12-1.25,0.12-0.93,0.51
	c0.23,0.28,0.35,0.27,0.85-0.06l0.59-0.38L169.94,111.68z M180.57,106.65c-0.04-2.75-0.14-5.06-0.22-5.14
	c-0.08-0.08-0.55,0.07-1.05,0.33l-0.91,0.47l0.14,4.16c0.07,2.29,0.21,4.19,0.3,4.23c0.09,0.04,0.39,0.26,0.67,0.5
	C180.63,112.19,180.66,112.06,180.57,106.65L180.57,106.65z M176.3,111.08c0.04-0.12-0.55-0.57-1.32-0.99
	c-0.77-0.42-1.44-0.82-1.51-0.89c-0.06-0.07-0.41-0.28-0.78-0.46s-0.74-0.36-0.84-0.4c-0.09-0.05-0.17,0.48-0.17,1.16
	c0,1.05,0.06,1.24,0.4,1.24c0.22,0,0.6,0.15,0.84,0.33C173.42,111.47,176.17,111.47,176.3,111.08L176.3,111.08z M170.8,108.52
	c0-1.23-0.08-2.23-0.17-2.23c-0.09,0-0.62,0.14-1.17,0.31l-1,0.3l0.05,1.2c0.03,0.66,0.11,1.52,0.18,1.92
	c0.12,0.69,0.18,0.72,1.12,0.72h0.99L170.8,108.52z M177.48,107.09c0-1.77-0.06-3.36-0.13-3.54c-0.13-0.33-0.99-0.27-0.99,0.07
	c0,0.1-0.5,0.35-1.11,0.58c-0.61,0.22-1.11,0.47-1.11,0.55c0,0.08-0.48,0.33-1.06,0.55c-0.58,0.22-1.13,0.51-1.22,0.64
	c-0.32,0.48-0.17,1.22,0.27,1.36c0.24,0.08,0.57,0.26,0.72,0.41c0.15,0.15,0.63,0.44,1.06,0.66c0.43,0.22,1.33,0.74,2.01,1.15
	c0.67,0.41,1.3,0.76,1.39,0.77C177.41,110.3,177.48,108.86,177.48,107.09L177.48,107.09z M146.49,103.34
	c3.29-5.01,7.07-9.39,11.23-12.98c0.71-0.61,1.41-1.22,1.56-1.36c0.15-0.13,0.67-0.51,1.15-0.83c1.37-0.91,1.98-1.35,2.3-1.65
	c0.16-0.15,0.39-0.28,0.5-0.28c0.59,0,0.03-0.51-1.52-1.37c-0.95-0.53-1.83-1.01-1.95-1.06c-0.12-0.05-0.27-0.16-0.33-0.24
	c-0.06-0.08-0.41-0.3-0.78-0.49c-0.37-0.19-1.56-0.85-2.65-1.49c-1.09-0.63-2.06-1.15-2.15-1.15c-0.09,0-0.21-0.08-0.25-0.18
	c-0.07-0.16-3.12-1.94-4.98-2.9c-0.37-0.19-0.79-0.46-0.93-0.6c-0.14-0.14-0.59-0.39-1-0.56c-0.41-0.17-0.79-0.37-0.85-0.45
	c-0.06-0.08-0.51-0.37-1-0.63c-0.49-0.27-1.32-0.73-1.84-1.03s-1.37-0.8-1.89-1.1c-0.52-0.3-1.4-0.81-1.95-1.12
	c-0.55-0.31-1.5-0.86-2.12-1.21s-1.47-0.83-1.89-1.07c-0.43-0.23-1.57-0.9-2.53-1.47c-0.96-0.57-1.79-1.04-1.85-1.04
	c-0.06,0-0.22-0.11-0.37-0.23c-0.15-0.13-0.59-0.4-0.98-0.61c-0.39-0.21-1.68-0.93-2.85-1.6c-1.17-0.67-2.57-1.48-3.11-1.78
	c-0.54-0.31-1.86-1.07-2.95-1.69s-2.32-1.33-2.75-1.56c-0.43-0.23-0.83-0.48-0.89-0.54c-0.1-0.1-2.02-1.21-5.28-3.03l-0.93-0.52
	l-0.85,0.49c-3.26,1.89-8.18,6.18-11.33,9.87c-0.58,0.68-1.17,1.23-1.32,1.23c-0.22,0-3.45-1.73-5.21-2.79
	c-0.21-0.12-1.86-1.08-3.67-2.12s-3.77-2.17-4.35-2.5c-0.58-0.34-1.38-0.78-1.78-0.99c-1.36-0.7-1.03-1.3,2.95-5.3
	c1.87-1.88,3.65-3.49,4.85-4.4c1.78-1.35,2.64-1.96,2.76-1.96c0.07,0,0.43-0.25,0.79-0.55l0.65-0.55l-1.69-0.96
	c-0.93-0.53-2.47-1.41-3.42-1.97c-1.67-0.98-1.75-1-2.27-0.65c-0.3,0.2-1.18,0.8-1.96,1.33l-1.42,0.96l-1.14-0.6
	c-0.63-0.33-1.64-0.89-2.26-1.25s-1.57-0.91-2.12-1.23c-0.55-0.32-1.4-0.82-1.89-1.11c-0.49-0.3-1.31-0.77-1.82-1.05
	c-1.72-0.96-4.64-2.64-5.54-3.19c-0.49-0.3-1.39-0.81-2.01-1.14c-0.61-0.32-1.15-0.68-1.19-0.79c-0.04-0.11-0.22-0.19-0.39-0.19
	c-0.17,0-0.32-0.09-0.32-0.2c0-0.3,0.72-1.12,1.24-1.43c1.26-0.74,2.1-1.33,2.1-1.48c0-0.09-0.33-0.33-0.72-0.53
	c-0.4-0.2-1.26-0.67-1.91-1.04c-0.65-0.37-1.34-0.68-1.53-0.68c-0.3,0-1.09-0.41-5.08-2.67c-1.5-0.85-5.98-3.42-6.41-3.67
	c-1.5-0.9-4.67-2.7-5.34-3.04c-0.45-0.23-1.2-0.78-1.67-1.22c-0.47-0.44-1.15-0.97-1.51-1.18c-0.36-0.2-1.11-0.64-1.67-0.97
	c-0.56-0.33-1.32-0.76-1.69-0.95c-0.37-0.19-1.22-0.69-1.89-1.12s-1.63-0.98-2.12-1.23c-0.49-0.25-1.09-0.59-1.34-0.74
	c-0.25-0.15-1.58-0.93-2.96-1.72c-1.38-0.79-2.69-1.55-2.9-1.67s-1.08-0.62-1.94-1.09c-0.86-0.48-1.73-1.01-1.94-1.19
	c-0.33-0.28-0.49-0.24-1.38,0.37c-0.55,0.38-1.06,0.69-1.13,0.69s-0.3,0.16-0.52,0.35c-0.21,0.19-0.9,0.72-1.53,1.17
	c-3.58,2.58-7.24,6.37-11.34,11.74c-0.86,1.12-2.59,3.74-2.99,4.53L6.1,25.98l0.89,0.54c0.49,0.3,1.23,0.75,1.63,1.02
	c0.41,0.26,0.95,0.55,1.21,0.63c0.26,0.08,0.59,0.27,0.75,0.43c0.15,0.15,1.17,0.77,2.25,1.38c1.09,0.61,2.34,1.32,2.79,1.59
	c0.45,0.27,1.16,0.68,1.59,0.92c1.87,1.03,3.02,1.7,3.12,1.83c0.06,0.08,0.45,0.27,0.85,0.44s0.86,0.42,1,0.56
	c0.14,0.14,0.56,0.41,0.93,0.6c1.83,0.95,4.92,2.75,5.05,2.93c0.08,0.12,0.31-0.1,0.5-0.48c0.51-0.98,1.43-2.31,1.91-2.76
	c0.4-0.37,0.47-0.35,1.71,0.39c0.71,0.43,1.47,0.84,1.69,0.91c0.51,0.18,0.5,0.84-0.02,1.6c-1.84,2.7-1.84,2.7-0.71,3.17
	c0.37,0.15,0.67,0.35,0.67,0.44s0.4,0.34,0.89,0.56c0.86,0.39,0.91,0.39,1.34,0c0.24-0.22,0.45-0.49,0.45-0.59
	c0-0.11,0.33-0.69,0.72-1.3c0.51-0.78,0.87-1.11,1.23-1.11c0.28,0,0.5,0.08,0.5,0.19c0,0.1,0.45,0.38,1,0.6c0.55,0.23,1,0.49,1,0.58
	c0,0.09,0.2,0.23,0.45,0.3c0.25,0.08,0.45,0.29,0.45,0.47c0,0.27-0.97,1.96-1.34,2.32c-0.06,0.06-0.27,0.42-0.47,0.79l-0.35,0.68
	l1.76,0.96c1.96,1.06,1.9,1.07,2.77-0.53c0.8-1.47,1.45-2.14,1.94-1.98c0.26,0.08,0.52,0.22,0.58,0.3c0.06,0.09,0.64,0.44,1.28,0.79
	c1.37,0.74,1.47,1.17,0.58,2.48c-0.32,0.48-0.77,1.19-1,1.59l-0.41,0.72l0.94,0.48c0.52,0.26,0.99,0.54,1.05,0.62
	c0.15,0.19,1.3,0.69,1.58,0.69c0.12,0,0.29-0.18,0.38-0.39c0.39-0.95,1.67-2.72,2.04-2.84c0.47-0.15,3.32,1.33,3.51,1.83
	c0.13,0.35-0.03,0.71-1.14,2.51c-0.41,0.67-0.71,1.33-0.66,1.46c0.05,0.13,0.44,0.37,0.86,0.52c0.42,0.15,0.9,0.4,1.05,0.55
	s0.56,0.39,0.89,0.54c0.55,0.24,0.64,0.22,0.91-0.23c1.3-2.14,1.77-2.81,2.07-2.93c0.32-0.12,1.01,0.14,1.52,0.58
	c0.13,0.11,0.58,0.37,1,0.58c1.28,0.63,1.29,0.88,0.14,2.78c-1.17,1.92-1.16,1.96,0.46,2.81c0.48,0.25,1.11,0.58,1.4,0.73
	c0.6,0.32,0.75,0.18,1.92-1.8c0.78-1.32,1.4-1.59,2.29-0.99c0.34,0.23,1.01,0.63,1.5,0.88c1.08,0.57,1.07,0.77-0.16,2.83
	c-0.89,1.49-0.9,1.53-0.49,1.92c0.23,0.22,0.99,0.71,1.69,1.09l1.26,0.69l0.53-0.72c0.29-0.39,0.66-0.99,0.83-1.32
	c0.17-0.33,0.54-0.82,0.82-1.08l0.51-0.48l1.69,0.93c1.83,1.01,2,1.32,1.3,2.41c-0.21,0.33-0.45,0.66-0.53,0.72
	c-0.08,0.06-0.35,0.52-0.6,1.02l-0.46,0.91l1.43,0.76c0.79,0.42,1.43,0.84,1.43,0.93c0,0.09,0.18,0.17,0.39,0.16
	c0.24,0,0.72-0.56,1.26-1.47c1.15-1.93,1.56-2.11,2.96-1.31c0.59,0.34,1.29,0.73,1.56,0.86c0.64,0.32,0.58,0.93-0.19,2.07
	c-0.34,0.51-0.63,1.01-0.63,1.1c0,0.09-0.17,0.36-0.39,0.59c-0.37,0.41-0.37,0.44,0.06,0.73c0.24,0.17,0.54,0.39,0.67,0.48
	c0.12,0.1,0.62,0.38,1.11,0.62c0.49,0.25,0.97,0.55,1.07,0.67c0.11,0.14,0.28,0.07,0.45-0.19c0.15-0.23,0.64-0.99,1.09-1.7
	c0.45-0.71,0.98-1.35,1.17-1.42c0.19-0.07,0.77,0.11,1.29,0.41c0.52,0.3,1.28,0.71,1.67,0.93c0.4,0.21,0.72,0.51,0.72,0.66
	c0,0.15-0.45,0.96-1,1.8c-0.55,0.84-1,1.65-1,1.79c0,0.15,0.24,0.4,0.53,0.56c0.29,0.16,1.06,0.58,1.71,0.93l1.18,0.64l0.4-0.52
	c0.22-0.29,0.41-0.6,0.41-0.69c0.01-0.3,1.23-1.9,1.65-2.17c0.24-0.15,0.48-0.18,0.56-0.06c0.08,0.11,0.76,0.54,1.52,0.96
	c0.76,0.42,1.42,0.91,1.46,1.1c0.06,0.29-0.41,1.19-1.11,2.13c-0.09,0.13-0.35,0.55-0.58,0.95l-0.41,0.72l0.74,0.34
	c0.41,0.19,1.29,0.68,1.97,1.1c0.67,0.42,1.6,0.92,2.06,1.13c0.46,0.2,0.84,0.45,0.84,0.54s0.38,0.34,0.84,0.54
	c0.85,0.38,2.44,1.28,2.84,1.62c0.12,0.1,0.65,0.38,1.17,0.61c0.52,0.23,0.95,0.5,0.95,0.6c0,0.1,0.2,0.24,0.44,0.31
	c0.43,0.14,2.8,1.48,3.24,1.84c0.12,0.1,0.56,0.32,0.97,0.49c0.41,0.17,0.86,0.42,1,0.56c0.24,0.24,3.65,2.2,5.16,2.98
	c0.37,0.19,0.72,0.41,0.78,0.49c0.06,0.08,1.37,0.83,2.9,1.67s2.84,1.59,2.9,1.66c0.06,0.07,0.51,0.35,1,0.62
	c1.3,0.71,2.77,1.56,3.79,2.18c0.49,0.3,1.29,0.75,1.78,1.01c0.49,0.26,1.44,0.81,2.12,1.22c0.67,0.41,1.58,0.93,2.01,1.14
	c0.43,0.22,0.83,0.46,0.89,0.53c0.06,0.08,0.91,0.58,1.89,1.11c0.98,0.53,1.82,1.05,1.86,1.15c0.04,0.1,0.25,0.18,0.46,0.18
	C144.71,105.85,145.46,104.92,146.49,103.34L146.49,103.34z M183.65,102.67c3.78-3.91,5.38-8.34,4.51-12.47
	c-0.14-0.65-0.39-1.34-0.56-1.53c-0.17-0.19-0.31-0.43-0.31-0.52c0-0.28-1.33-2.11-1.96-2.71c-0.33-0.31-1.15-0.82-1.83-1.13
	c-0.67-0.31-1.39-0.66-1.6-0.76c-0.88-0.46-3.51-0.71-6.08-0.6c-2.23,0.1-3.07,0.25-4.92,0.86c-1.23,0.4-2.28,0.8-2.34,0.88
	c-0.06,0.08-0.59,0.32-1.17,0.54c-1.01,0.38-1.84,1.01-1.33,1.01c0.13,0,0.37,0.13,0.53,0.29c0.16,0.16,0.53,0.45,0.81,0.64
	c1.57,1.08,3.89,3.65,5.81,6.42c0.79,1.15,2.6,4.66,2.92,5.68c0.16,0.49,0.36,0.99,0.46,1.11c0.1,0.12,0.26,0.56,0.37,0.97
	l0.19,0.74l1.11-0.8c0.61-0.44,1.26-0.87,1.44-0.95c0.18-0.08,0.4-0.25,0.48-0.36c0.08-0.12,0.34-0.03,0.61,0.22
	c0.35,0.32,0.54,0.92,0.73,2.26c0.14,1,0.33,1.82,0.41,1.82S182.79,103.56,183.65,102.67L183.65,102.67z M8.75,97.62
	c0-0.9-0.08-1.12-0.44-1.24c-0.24-0.08-0.57-0.26-0.72-0.42c-0.25-0.24-3.4-2.07-5.12-2.97c-0.33-0.18-0.67-0.41-0.74-0.53
	c-0.32-0.52-0.55-0.11-0.55,0.97c0,1.16,0.01,1.19,0.95,1.68c0.52,0.27,1.32,0.72,1.77,0.99c1.78,1.07,4.53,2.6,4.69,2.61
	C8.67,98.72,8.75,98.22,8.75,97.62L8.75,97.62z M94.34,96.03v-0.9l-0.67,0.4c-0.78,0.46-0.84,0.66-0.22,0.86
	c0.25,0.08,0.45,0.24,0.45,0.35c0,0.11,0.1,0.21,0.22,0.21C94.24,96.93,94.34,96.53,94.34,96.03L94.34,96.03z M94.36,90.55
	c0.07-1.94,0.24-4.05,0.38-4.68c0.52-2.42,1.71-5.76,2.73-7.69c0.91-1.71,0.31-1.35-0.71,0.42c-0.4,0.7-0.89,1.54-1.08,1.86
	c-0.19,0.32-0.84,1.47-1.44,2.56c-0.6,1.09-1.17,2.03-1.27,2.1c-0.49,0.33-0.65,1.7-0.65,5.72v4.35l0.95-0.56l0.95-0.56L94.36,90.55
	z M86.76,91.7c0-0.88-0.17-0.96-0.85-0.37c-0.44,0.38-0.45,0.43-0.09,0.76C86.46,92.67,86.76,92.54,86.76,91.7z M85.58,90.42
	c1.15-0.51,1.18-0.61,1.18-3.78c0-1.93,0.12-3.44,0.35-4.31c0.19-0.74,0.48-1.95,0.66-2.7c0.32-1.39,1.26-3.88,2.12-5.62
	c0.26-0.53,0.43-1.01,0.38-1.06c-0.09-0.09-1.02,1.23-1.35,1.92c-0.09,0.18-0.28,0.53-0.44,0.78c-0.15,0.25-0.7,1.2-1.23,2.12
	c-1.19,2.1-1.36,2.38-1.99,3.36c-0.48,0.76-0.51,1-0.51,5.18c0,2.41,0.05,4.39,0.1,4.39C84.91,90.69,85.24,90.57,85.58,90.42
	L85.58,90.42z M8.75,89.04v-1.21l-2.51-1.41c-1.38-0.78-2.61-1.45-2.73-1.5c-0.12-0.05-0.27-0.16-0.33-0.25
	c-0.06-0.09-0.54-0.38-1.06-0.64l-0.95-0.48l0,1.17l0,1.17l1.61,0.87c0.89,0.48,1.66,0.94,1.73,1.03c0.06,0.08,0.51,0.34,1,0.57
	C6,88.6,6.5,88.87,6.63,88.97c0.18,0.16,1.86,1.18,2.06,1.25C8.72,90.24,8.74,89.7,8.75,89.04L8.75,89.04z M79.18,87.46
	c0-0.86-0.12-0.93-0.78-0.42c-0.44,0.34-0.44,0.35,0.08,0.77C79.17,88.37,79.18,88.37,79.18,87.46z M78.3,86.01l0.88-0.45v-3.11
	c0-2.04,0.11-3.44,0.31-4.06c0.17-0.53,0.43-1.61,0.58-2.4s0.46-1.87,0.69-2.38c0.23-0.51,0.42-1.07,0.42-1.23s0.5-1.29,1.11-2.51
	s1.07-2.25,1.03-2.3c-0.08-0.08-2.05,3.15-3.78,6.19c-0.45,0.8-0.95,1.65-1.09,1.89c-1.36,2.2-1.27,1.78-1.27,6.47
	c0,2.39,0.05,4.35,0.12,4.35C77.36,86.46,77.82,86.25,78.3,86.01L78.3,86.01z M92.27,84.51c1.06-1.92,1.72-3.07,1.85-3.18
	c0.07-0.06,0.32-0.54,0.55-1.06c0.23-0.52,0.5-0.95,0.61-0.95c0.1,0,0.19-0.14,0.19-0.32c0-0.27-3.55-2.49-3.67-2.3
	c-0.02,0.03-0.21,0.41-0.42,0.84c-0.21,0.43-1.06,1.93-1.88,3.34l-1.5,2.56l1.68,0.94c0.92,0.52,1.78,0.94,1.91,0.95
	C91.7,85.34,92.01,84.97,92.27,84.51L92.27,84.51z M165.73,84.91c0.46-0.18,0.84-0.39,0.84-0.48c0-0.09,0.53-0.33,1.17-0.54
	c0.64-0.21,1.28-0.47,1.42-0.58c0.24-0.19,2.91-0.95,4.66-1.32c0.49-0.1,1.89-0.19,3.12-0.2l2.23-0.01l-0.78-0.5
	c-1.26-0.81-1.56-0.99-3.67-2.18c-1.1-0.62-2.31-1.32-2.67-1.54c-1.76-1.07-4.04-2.32-4.66-2.55c-0.38-0.14-1.23-0.56-1.89-0.92
	c-0.66-0.37-1.48-0.82-1.83-1c-0.35-0.18-0.76-0.51-0.92-0.71c-0.16-0.21-1.04-0.74-1.96-1.19c-0.92-0.45-1.87-0.92-2.12-1.06
	c-0.25-0.14-0.75-0.4-1.11-0.58c-0.37-0.18-0.72-0.4-0.78-0.49c-0.06-0.08-0.44-0.32-0.84-0.52s-0.72-0.45-0.72-0.54
	s-0.88-0.6-1.95-1.13c-1.07-0.53-2.1-1.05-2.28-1.16c-2.24-1.27-3.12-1.82-3.12-1.97c0-0.1-0.88-0.61-1.95-1.13
	c-1.07-0.52-2.1-1.04-2.28-1.15c-1.01-0.58-2.57-1.45-2.93-1.64c-0.23-0.12-0.42-0.29-0.42-0.38c0-0.24-2.46-1.64-3.46-1.97
	c-0.48-0.16-1.26-0.57-1.75-0.92c-0.48-0.35-1-0.64-1.14-0.64c-0.14,0-0.6-0.31-1.03-0.7s-1.72-1.15-2.88-1.71
	c-1.16-0.55-2.17-1.08-2.23-1.17c-0.06-0.09-0.54-0.38-1.07-0.64c-0.53-0.27-1.41-0.83-1.97-1.26c-0.56-0.42-1.5-0.98-2.09-1.24
	c-0.6-0.26-1.38-0.63-1.74-0.83c-0.36-0.2-1.17-0.64-1.78-0.98c-0.62-0.34-1.2-0.74-1.3-0.89c-0.23-0.35-0.4-0.45-4.25-2.41
	c-1.75-0.89-3.18-1.69-3.18-1.79c0-0.23-1.83-1.46-2.49-1.66c-0.45-0.14-1.75-0.79-4.22-2.11c-0.34-0.18-0.81-0.53-1.04-0.78
	c-0.23-0.25-1.61-1.05-3.08-1.78c-1.46-0.73-2.79-1.46-2.96-1.62c-0.16-0.16-0.38-0.28-0.49-0.28c-0.11,0-0.53-0.29-0.93-0.64
	s-1.53-1.03-2.52-1.5c-2.41-1.16-4.83-2.56-5.24-3.02c-0.18-0.21-0.99-0.69-1.78-1.08c-2.56-1.24-4.12-2.07-4.48-2.38
	c-0.19-0.17-0.47-0.3-0.61-0.3c-0.14,0-0.35-0.19-0.48-0.41c-0.12-0.23-0.7-0.63-1.29-0.9c-0.59-0.27-1.22-0.58-1.4-0.69
	c-0.18-0.12-0.69-0.37-1.11-0.56c-1.43-0.64-2.67-1.38-3.51-2.09c-0.46-0.39-1.69-1.11-2.73-1.6C69,18.41,68,17.91,67.82,17.79
	c-0.18-0.12-0.79-0.45-1.34-0.75c-0.55-0.3-1.3-0.8-1.67-1.12c-0.37-0.32-1.61-1.06-2.77-1.64c-1.15-0.58-2.58-1.29-3.18-1.59
	c-0.59-0.3-1.08-0.65-1.08-0.78c0-0.13-0.68-0.62-1.5-1.08c-0.83-0.46-2-1.14-2.62-1.51c-0.61-0.37-1.42-0.82-1.78-1
	c-0.37-0.18-1.22-0.67-1.89-1.1c-0.67-0.43-1.46-0.88-1.76-1.01c-0.29-0.13-0.81-0.43-1.15-0.67c-1.25-0.89-5.05-2.64-6.35-2.91
	c-2.33-0.5-8.26-0.2-9.14,0.46c-0.12,0.09-0.77,0.35-1.44,0.56c-1.26,0.41-4.02,1.64-4.02,1.8c0,0.05,0.38,0.29,0.84,0.54
	C27.43,6.24,28.2,6.69,28.7,7c0.49,0.3,1.29,0.77,1.78,1.03c0.49,0.26,0.94,0.54,1,0.62c0.06,0.08,0.45,0.29,0.85,0.45
	c0.41,0.17,0.86,0.41,1.01,0.54c0.15,0.13,0.62,0.43,1.04,0.67c2.78,1.53,4.8,2.69,4.89,2.79c0.06,0.07,0.46,0.3,0.89,0.52
	c0.43,0.22,1.73,0.95,2.88,1.62l2.1,1.23l0.96-0.45c0.53-0.25,1.06-0.45,1.19-0.45c0.12,0,0.23-0.08,0.23-0.19s0.4-0.32,0.89-0.48
	c0.97-0.32,0.91-0.34,3.01,0.89c1.73,1.01,3.23,1.87,3.93,2.24c0.35,0.19,0.81,0.46,1.03,0.62c0.68,0.49,5.49,3.17,5.67,3.17
	c0.1,0,0.18,0.09,0.18,0.2s0.38,0.36,0.84,0.57c0.84,0.37,2.43,1.27,2.84,1.61c0.12,0.1,0.6,0.36,1.07,0.58
	c0.47,0.22,0.97,0.49,1.11,0.62c0.15,0.13,0.46,0.36,0.69,0.52c0.66,0.45,0.31,0.89-1.31,1.68c-1.65,0.8-1.67,0.99-0.12,1.69
	c0.49,0.22,0.89,0.48,0.89,0.57c0,0.35,1.36,0.48,1.74,0.16c0.46-0.39,3.93-1.87,4.84-2.07c0.37-0.08,0.82-0.21,1-0.28
	c0.6-0.23,1.32-0.25,1.46-0.04c0.07,0.12,0.27,0.21,0.43,0.21c0.39,0,2,0.73,3.13,1.43c0.94,0.58,4.5,2.62,9.36,5.37
	c1.59,0.9,3,1.72,3.12,1.82c0.12,0.1,0.5,0.36,0.84,0.58s0.61,0.57,0.61,0.8c0,0.56-0.84,1.26-1.89,1.59
	c-0.49,0.15-1.44,0.52-2.12,0.83c-2.51,1.12-2.53,1.14-1.81,1.52c1.43,0.76,2.38,1.3,2.48,1.42c0.06,0.08,0.51,0.34,1,0.58
	c0.49,0.24,0.94,0.5,1,0.57c0.15,0.18,1.59,0.88,1.81,0.88c0.1,0,0.92-0.35,1.82-0.78c0.9-0.43,1.87-0.78,2.15-0.78
	c0.43,0,3.25,1.39,3.58,1.77c0.06,0.07,0.51,0.32,1,0.57c0.49,0.24,0.94,0.5,1,0.57c0.06,0.07,0.9,0.57,1.86,1.12
	c0.96,0.54,2.18,1.24,2.71,1.54c0.53,0.31,2.02,1.15,3.31,1.87c1.8,1,2.31,1.39,2.21,1.67c-0.23,0.64-0.52,0.89-1.36,1.17
	c-0.45,0.15-1.04,0.44-1.32,0.65c-0.45,0.35-0.46,0.4-0.11,0.53c0.21,0.08,0.94,0.48,1.61,0.91c0.67,0.42,1.55,0.92,1.95,1.1
	c0.4,0.18,0.85,0.44,1,0.58c0.16,0.14,0.61,0.42,1,0.63c1.93,1.02,4.66,2.61,4.93,2.87c0.16,0.16,0.38,0.29,0.47,0.29
	c0.18,0,2.6,1.39,3.02,1.73c0.12,0.1,0.56,0.32,0.97,0.49s0.86,0.42,1.01,0.55c0.15,0.13,0.62,0.43,1.04,0.67
	c2.78,1.53,4.8,2.69,4.89,2.79c0.06,0.07,0.46,0.32,0.89,0.55c2.34,1.28,4.81,2.69,4.9,2.81c0.06,0.08,0.46,0.31,0.89,0.53
	c0.43,0.22,1.33,0.73,2.01,1.15c0.67,0.41,1.57,0.91,2,1.11c0.42,0.2,0.83,0.44,0.89,0.54c0.07,0.1,0.49,0.38,0.94,0.6
	c1.58,0.8,4.75,2.61,4.86,2.77c0.06,0.09,0.46,0.33,0.89,0.53c0.83,0.39,2.41,1.31,2.79,1.62c0.12,0.1,0.65,0.38,1.17,0.61
	c0.52,0.23,0.95,0.49,0.95,0.58s0.45,0.34,1,0.57c0.55,0.23,1,0.49,1,0.58c0,0.09,0.2,0.23,0.44,0.3c0.42,0.13,2.76,1.46,3.24,1.83
	c0.34,0.26,1.77,0.93,1.89,0.88C164.84,85.25,165.27,85.08,165.73,84.91L165.73,84.91z M96.82,83.5c0.26-0.52,0.54-1,0.62-1.06
	c0.08-0.06,0.31-0.46,0.53-0.89c0.4-0.79,1.11-2.05,2.23-3.94c0.63-1.06,0.54-1.5-0.27-1.36c-0.3,0.05-1.66,2.47-2.27,4.04
	c-0.46,1.2-1.45,4.15-1.39,4.15C96.31,84.45,96.55,84.02,96.82,83.5L96.82,83.5z M71.76,82.3c-0.06-0.06-0.43,0.1-0.83,0.34
	l-0.73,0.44l0.76,0.46L71.72,84l0.07-0.8C71.83,82.76,71.81,82.35,71.76,82.3L71.76,82.3z M70.94,81.55l0.88-0.45v-2.93
	c0-1.72,0.15-3.72,0.35-4.84c0.32-1.75,1.36-5.24,1.84-6.19c0.28-0.56,1.22-2.55,1.42-3.03c0.33-0.77-0.27-0.13-0.74,0.79
	c-0.26,0.51-0.61,1.06-0.78,1.23c-0.17,0.17-0.31,0.39-0.31,0.49c0,0.17-1.36,2.56-1.72,3.02c-0.1,0.12-0.36,0.57-0.58,1
	c-0.22,0.43-0.64,1.18-0.93,1.67c-0.51,0.85-0.53,1.08-0.55,5.29c-0.01,2.42,0.04,4.4,0.1,4.4C70.01,82,70.46,81.8,70.94,81.55
	L70.94,81.55z M8.66,79.45c-0.11-0.44-0.45-0.66-3.01-1.99c-0.44-0.23-0.95-0.54-1.13-0.69c-0.18-0.15-1.02-0.66-1.85-1.12
	l-1.52-0.84l0.07,1.17c0.05,0.9,0.17,1.23,0.51,1.42c0.25,0.14,0.5,0.3,0.56,0.37c0.11,0.13,2.77,1.67,4.41,2.55
	c0.46,0.25,1.09,0.63,1.39,0.84l0.55,0.39l0.07-0.82C8.74,80.29,8.72,79.71,8.66,79.45L8.66,79.45z M84.58,80.49
	c0.21-0.46,0.48-0.98,0.6-1.17c0.12-0.18,0.59-0.99,1.05-1.78c0.46-0.8,1.06-1.81,1.34-2.26l0.51-0.81l-1.77-1.04
	c-0.97-0.57-1.86-0.98-1.98-0.91c-0.12,0.07-0.69,1.01-1.27,2.08c-0.58,1.07-1.12,2-1.2,2.06c-0.08,0.06-0.32,0.48-0.53,0.94
	c-0.21,0.45-0.48,0.89-0.6,0.96c-0.27,0.17-0.29,0.78-0.02,0.78c0.23,0,2.71,1.44,3.04,1.76C84.1,81.43,84.17,81.38,84.58,80.49
	L84.58,80.49z M64.25,78.77c0-0.89-0.12-0.94-0.87-0.36l-0.54,0.41l0.65,0.35c0.36,0.19,0.68,0.36,0.71,0.36
	C64.22,79.55,64.25,79.2,64.25,78.77L64.25,78.77z M90.99,76.2c1.01-1.78,1.99-3.41,2.18-3.62c0.31-0.35,0.29-0.4-0.19-0.59
	c-0.31-0.12-0.64-0.12-0.78-0.01c-0.28,0.23-1.58,2.82-2.38,4.77c-0.52,1.25-1.01,3.03-0.77,2.79
	C89.11,79.48,89.98,77.98,90.99,76.2L90.99,76.2z M63.56,77.1l0.69-0.28l0.01-3.04c0.01-2.98,0.28-4.83,1.18-8
	c0.33-1.16,1.61-4.41,1.91-4.84c0.08-0.12,0.28-0.52,0.42-0.89c0.25-0.62,0.24-0.63-0.07-0.23c-0.19,0.24-0.75,1.14-1.26,2.01
	s-1.09,1.82-1.31,2.13c-0.21,0.31-0.45,0.78-0.54,1.06c-0.09,0.27-0.28,0.62-0.43,0.78c-0.15,0.15-0.65,0.95-1.1,1.77l-0.83,1.49
	v4.49c0,3.87,0.04,4.45,0.32,4.18C62.73,77.53,63.18,77.26,63.56,77.1L63.56,77.1z M77.02,76.15c0.2-0.4,0.62-1.13,0.92-1.62
	c0.3-0.49,0.69-1.14,0.86-1.45c0.17-0.31,0.63-1.13,1.03-1.84l0.73-1.28l-0.63-0.28c-0.35-0.15-1.08-0.56-1.62-0.9
	c-0.55-0.34-1.12-0.62-1.28-0.62c-0.16,0-0.58,0.53-0.94,1.17c-0.36,0.64-0.74,1.27-0.84,1.39c-0.1,0.12-0.37,0.65-0.61,1.17
	c-0.23,0.52-0.49,0.95-0.57,0.95c-0.08,0-0.36,0.44-0.62,0.97l-0.47,0.97l0.55,0.25c0.3,0.14,0.67,0.36,0.82,0.49
	c0.3,0.26,1.98,1.27,2.18,1.3C76.59,76.86,76.82,76.55,77.02,76.15z M98.75,75.63c-0.07-0.07-0.26,0.1-0.4,0.38
	c-0.26,0.5-0.25,0.5,0.14,0.14C98.7,75.94,98.82,75.71,98.75,75.63L98.75,75.63z M56.67,74.42c0-0.76,0-0.76-0.77-0.41
	c-0.7,0.32-0.71,0.49-0.07,0.81C56.59,75.18,56.67,75.15,56.67,74.42z M83.41,72.03c0.88-1.56,1.77-3.12,1.97-3.47
	c0.36-0.59,0.35-0.64-0.05-0.94c-0.23-0.17-0.49-0.27-0.58-0.22c-0.24,0.15-2.15,4.14-2.46,5.13c-0.15,0.49-0.35,0.99-0.44,1.11
	c-0.27,0.37-0.49,1.5-0.26,1.36C81.72,74.93,82.53,73.59,83.41,72.03z M55.27,73.28c0.14-0.14,0.48-0.37,0.77-0.51
	c0.5-0.25,0.53-0.38,0.67-3.71c0.08-1.9,0.25-3.85,0.37-4.34s0.38-1.49,0.57-2.23c0.46-1.82,1.32-4.04,2.47-6.39
	c0.53-1.08,0.93-1.96,0.89-1.96c-0.04,0-0.35,0.48-0.68,1.06c-0.34,0.58-0.68,1.11-0.75,1.17c-0.08,0.06-0.61,0.96-1.19,2.01
	c-0.57,1.04-1.29,2.3-1.58,2.79c-0.3,0.49-0.9,1.52-1.33,2.29l-0.79,1.4v4.34c0,2.39,0.08,4.34,0.18,4.34S55.13,73.42,55.27,73.28z
	 M8.75,71.67c0-1.17-0.03-1.19-3.23-3.04c-1.35-0.78-2.81-1.65-3.24-1.93s-0.86-0.52-0.95-0.52c-0.09,0-0.16,0.5-0.16,1.11
	c0,1.04,0.05,1.14,0.84,1.62c1.27,0.78,1.58,0.95,3.62,2.09c1.04,0.58,2.03,1.18,2.19,1.35C8.41,72.93,8.75,72.69,8.75,71.67
	L8.75,71.67z M70.15,70.66c0.08-0.26,0.28-0.6,0.45-0.77c0.17-0.17,0.49-0.65,0.71-1.09c0.22-0.43,0.69-1.31,1.04-1.95
	s0.6-1.19,0.56-1.22c-0.36-0.27-3.57-1.94-3.62-1.88c-0.04,0.04-0.49,0.83-1,1.75c-1.04,1.86-1.2,2.14-2.08,3.55
	c-0.34,0.54-0.61,1.09-0.61,1.23c0.01,0.24,1.42,1.24,1.75,1.24c0.09,0,0.5,0.25,0.9,0.55l0.74,0.55l0.51-0.75
	C69.77,71.46,70.07,70.91,70.15,70.66L70.15,70.66z M90.8,72.14c0.24-0.45,0.23-0.47-0.1-0.2c-0.2,0.17-0.37,0.39-0.37,0.5
	C90.33,72.78,90.53,72.65,90.8,72.14L90.8,72.14z M74.51,70.13c0.16-0.4,0.41-0.88,0.55-1.06c0.15-0.18,0.69-1.13,1.21-2.1
	s1.16-2.05,1.42-2.41c0.37-0.5,0.42-0.73,0.23-1.02c-0.41-0.65-0.77-0.43-1.5,0.96c-0.98,1.86-2.6,5.88-2.6,6.45
	C73.83,71.3,74.24,70.81,74.51,70.13L74.51,70.13z M49.16,69.91c-0.12-0.59-0.13-0.6-0.76-0.27c-0.35,0.18-0.64,0.38-0.64,0.43
	c0,0.21,1.23,0.74,1.38,0.6C49.21,70.59,49.23,70.25,49.16,69.91z M48.43,68.5l0.79-0.49l-0.03-2.87c-0.02-1.77,0.08-3.25,0.25-3.87
	c0.16-0.55,0.36-1.45,0.44-2.01c0.15-0.98,1.33-4.58,1.93-5.89c0.16-0.36,0.57-1.19,0.9-1.85c0.33-0.66,0.52-1.14,0.41-1.07
	c-0.23,0.14-2.8,4.38-3.71,6.11c-0.09,0.17-0.65,1.15-1.24,2.18l-1.08,1.88v4.35c0,3.42,0.06,4.31,0.28,4.18
	C47.52,69.06,48,68.77,48.43,68.5L48.43,68.5z M62.82,66c0.58-1.07,1.19-2.08,1.35-2.24c0.16-0.16,0.3-0.41,0.3-0.56
	c0-0.14,0.2-0.51,0.44-0.82c0.63-0.81,0.56-1.05-0.5-1.58c-0.52-0.26-1.1-0.61-1.28-0.77c-0.18-0.16-0.59-0.35-0.9-0.43
	c-0.48-0.12-0.62-0.03-0.94,0.6c-0.21,0.41-0.67,1.24-1.04,1.85c-0.37,0.61-0.84,1.47-1.05,1.89c-0.21,0.43-0.59,1.06-0.85,1.41
	c-0.46,0.63-0.46,0.63-0.01,0.96c0.24,0.18,0.85,0.54,1.34,0.79c0.49,0.25,0.94,0.53,1,0.62c0.15,0.22,0.74,0.41,0.93,0.3
	C61.7,67.99,62.24,67.07,62.82,66L62.82,66z M67.71,64.5c0.34-0.61,0.8-1.47,1.01-1.9c0.21-0.43,0.75-1.32,1.19-1.98
	c0.63-0.93,0.75-1.26,0.55-1.5c-0.46-0.55-0.85-0.32-1.47,0.86c-1.22,2.35-1.86,3.99-2.68,6.85c-0.05,0.18,0.1-0.02,0.34-0.45
	C66.89,65.97,67.37,65.11,67.71,64.5L67.71,64.5z M41.64,65.11c-0.18-0.18-1.24,0.34-1.24,0.6c0,0.12,0.28,0.35,0.61,0.51
	c0.59,0.29,0.62,0.27,0.68-0.34C41.73,65.53,41.71,65.18,41.64,65.11z M97.47,65.34c1.26-1.6,6.18-6.4,7.34-7.16
	c0.3-0.2,0.84-0.62,1.19-0.95l0.64-0.59l-1.72-0.97c-0.95-0.54-2.18-1.25-2.75-1.58c-1.3-0.77-2.72-1.57-4.17-2.36
	c-1.26-0.68-1.07-0.76-1.94,0.87c-0.31,0.58-0.9,1.03-2.42,1.85c-2.23,1.2-2.08,1.2-4.03-0.05l-0.83-0.53l-1.21,0.83
	c-0.67,0.46-1.84,1.44-2.6,2.18c-1.56,1.51-1.57,1.45,0.36,2.44c0.49,0.25,0.94,0.52,1,0.6s0.48,0.34,0.93,0.58
	c1.64,0.89,5.86,3.31,7.98,4.57c0.8,0.48,1.52,0.87,1.6,0.88C96.92,65.94,97.2,65.67,97.47,65.34L97.47,65.34z M41.76,60.22
	c0.08-1.93,0.29-4.17,0.48-4.97c0.69-2.9,2.01-6.42,3.28-8.75c0.99-1.81,0.68-1.59-0.47,0.33c-0.53,0.89-1.02,1.67-1.09,1.73
	c-0.07,0.06-0.31,0.54-0.54,1.06c-0.23,0.52-0.5,0.95-0.59,0.95s-0.24,0.2-0.31,0.44c-0.13,0.42-1.46,2.76-1.83,3.24
	c-0.1,0.12-0.35,0.6-0.56,1.07c-0.33,0.71-0.39,1.52-0.39,5.2v4.35l0.95-0.56l0.95-0.56L41.76,60.22z M55.45,61.38
	c0.35-0.61,0.69-1.16,0.76-1.23c0.07-0.06,0.3-0.46,0.52-0.89c0.22-0.43,0.59-1.09,0.84-1.47l0.44-0.69l-1.17-0.63
	c-0.64-0.35-1.22-0.7-1.28-0.78s-0.34-0.27-0.62-0.42c-0.59-0.31-0.83-0.13-1.45,1.09c-0.22,0.43-0.63,1.18-0.91,1.67
	c-1.37,2.34-2.15,3.73-2.15,3.81c0,0.05,0.14,0.09,0.32,0.09c0.17,0,0.35,0.08,0.39,0.18c0.04,0.1,0.73,0.54,1.52,0.99l1.45,0.81
	l0.36-0.71C54.66,62.81,55.11,61.99,55.45,61.38L55.45,61.38z M59.12,62.11c0-0.14,0.14-0.41,0.31-0.6
	c0.17-0.19,0.73-1.15,1.24-2.14c0.51-0.98,1.22-2.23,1.58-2.79c0.95-1.47,0.97-1.55,0.52-1.9c-0.36-0.27-0.46-0.26-0.71,0.07
	c-1.02,1.3-3.79,8.13-3.14,7.72C59.03,62.41,59.12,62.25,59.12,62.11L59.12,62.11z M34.16,61.37v-0.79l-0.67,0.35
	c-0.37,0.19-0.67,0.39-0.67,0.44c0,0.08,1.1,0.74,1.28,0.77C34.13,62.16,34.16,61.81,34.16,61.37L34.16,61.37z M33.26,59.93
	c0.28-0.25,0.6-0.45,0.7-0.45s0.19-1.28,0.19-2.84c0-2.47,0.42-5.93,0.79-6.53c0.06-0.1,0.31-0.96,0.56-1.9
	c0.24-0.94,0.52-1.83,0.62-1.96c0.1-0.14,0.37-0.75,0.6-1.36c0.23-0.61,0.59-1.42,0.82-1.78c0.22-0.37,0.41-0.76,0.41-0.87
	c0-0.29-0.75,0.72-1.31,1.76c-0.27,0.49-0.73,1.29-1.02,1.78c-0.3,0.49-0.77,1.3-1.05,1.81c-0.67,1.19-1.78,3.14-2.13,3.74
	c-0.19,0.33-0.28,1.76-0.28,4.76C32.15,60.71,32.19,60.86,33.26,59.93L33.26,59.93z M48.02,57.01c0.77-1.36,1.63-2.85,1.9-3.32
	l0.49-0.84l-0.83-0.56c-1.65-1.11-2.77-1.63-2.88-1.33c-0.06,0.16-0.24,0.42-0.4,0.58c-0.16,0.16-0.46,0.64-0.65,1.05
	c-0.2,0.42-0.65,1.26-1.02,1.87c-1.59,2.69-1.63,2.78-1.2,3.25c0.21,0.23,0.47,0.42,0.56,0.42s0.66,0.3,1.24,0.67
	c0.58,0.37,1.13,0.67,1.22,0.67S47.25,58.37,48.02,57.01z M68.51,58.76c0.24-0.45,0.23-0.47-0.1-0.2c-0.2,0.17-0.37,0.39-0.37,0.5
	C68.04,59.41,68.24,59.28,68.51,58.76z M26.7,56.92c0.01-0.74,0.01-0.74-0.61-0.42c-0.75,0.39-0.78,0.6-0.12,1.04
	C26.58,57.95,26.69,57.87,26.7,56.92z M87.09,53.69c0.15,0,0.45-0.2,0.67-0.44c0.22-0.24,0.73-0.55,1.15-0.69
	c0.41-0.14,0.75-0.33,0.75-0.43c0-0.1,0.3-0.3,0.67-0.45c0.37-0.15,0.88-0.62,1.14-1.04c0.58-0.94,1.99-1.7,2.77-1.51
	c0.54,0.14,0.56,0.11,0.56-1.01c0-1.12-0.01-1.14-0.5-0.88c-1.81,0.95-5.45,3.91-8.2,6.66c-3.18,3.19-3.96,4.15-1.47,1.84
	C85.82,54.61,86.94,53.69,87.09,53.69L87.09,53.69z M52.63,55.95c0.29-0.44,0.67-1.11,0.84-1.48c0.17-0.37,0.75-1.37,1.28-2.23
	c0.97-1.54,0.97-1.56,0.5-1.82c-0.26-0.14-0.54-0.22-0.61-0.18c-0.23,0.14-2.15,4.18-2.44,5.12c-0.15,0.49-0.36,0.99-0.47,1.1
	c-0.11,0.12-0.19,0.42-0.18,0.67c0.01,0.44,0.02,0.44,0.28,0.04C51.98,56.94,52.34,56.39,52.63,55.95L52.63,55.95z M26.02,55.44
	l0.67-0.46l0.03-3.15c0.04-4.28,0.93-7.99,2.89-12.15c0.31-0.65,0.51-1.24,0.45-1.3c-0.11-0.11-0.8,0.98-2.15,3.37
	c-0.31,0.54-1.18,2.09-1.95,3.44l-1.39,2.45v4.27C24.57,56.66,24.5,56.48,26.02,55.44L26.02,55.44z M109.83,54.63
	c0.42-0.23,0.39-0.27-0.33-0.58c-0.43-0.19-1.08-0.54-1.45-0.79c-0.37-0.25-0.73-0.45-0.79-0.46c-0.13,0-0.02,2.59,0.14,3.08
	c0.07,0.21,0.36,0.11,1.04-0.35C108.96,55.17,109.59,54.77,109.83,54.63z M39.33,54.64c0.19-0.21,0.81-1.24,1.38-2.28
	c1.24-2.25,1.44-2.6,1.97-3.4c0.22-0.34,0.31-0.61,0.2-0.61c-0.23,0-2.69-1.45-3.02-1.79c-0.38-0.38-0.52-0.26-1.28,1.06
	c-0.41,0.7-0.84,1.45-0.96,1.66c-1.7,2.86-2.13,3.8-1.88,4.1c0.15,0.18,0.38,0.32,0.52,0.32c0.14,0,0.7,0.3,1.25,0.65
	C38.69,55.12,38.88,55.15,39.33,54.64L39.33,54.64z M106.15,54.38c0-0.65,0-0.65-0.67-0.32c-0.8,0.4-0.82,0.48-0.17,0.74
	C106.09,55.11,106.15,55.08,106.15,54.38L106.15,54.38z M91.17,52.67c-0.12-0.12-1.51,0.42-1.51,0.58c0,0.07,0.33,0.29,0.72,0.48
	l0.72,0.35l0.07-0.66C91.22,53.05,91.21,52.72,91.17,52.67L91.17,52.67z M95.15,52.17c0.37-0.57,0.24-0.95-0.19-0.52
	c-0.15,0.15-0.64,0.26-1.11,0.26c-0.78,0-0.87,0.07-1.29,0.99c-0.25,0.55-0.45,1.05-0.45,1.13C92.11,54.32,94.83,52.66,95.15,52.17
	L95.15,52.17z M112.79,53.09l0.69-0.42l-2.34-1.33c-1.29-0.73-2.79-1.58-3.33-1.88c-0.54-0.31-2.12-1.21-3.49-2.01
	c-1.38-0.8-2.6-1.49-2.73-1.54c-0.12-0.05-0.46-0.27-0.75-0.5c-0.82-0.64-0.94-0.51-0.87,0.86l0.07,1.27l3.01,1.73
	c1.66,0.95,3.14,1.79,3.3,1.88c0.16,0.08,1.31,0.73,2.55,1.44C111.29,53.96,111.34,53.97,112.79,53.09L112.79,53.09z M44.3,53.02
	c0.19-0.37,0.26-0.67,0.15-0.67c-0.17,0-0.71,0.95-0.71,1.24C43.74,53.87,43.99,53.62,44.3,53.02L44.3,53.02z M103.26,52.5
	c0-1.57-0.38-2.33-1.42-2.86c-0.51-0.26-1.19-0.65-1.51-0.88c-0.74-0.52-0.95-0.53-0.75-0.03c0.09,0.21,0.21,0.94,0.27,1.62
	c0.06,0.67,0.18,1.29,0.26,1.38c0.19,0.21,2.78,1.7,2.98,1.72C103.18,53.46,103.26,53.03,103.26,52.5L103.26,52.5z M105.32,53.03
	c0.86-0.43,0.76-0.93-0.31-1.51l-0.91-0.5l0.13,0.5c0.07,0.27,0.13,0.83,0.14,1.24c0,0.41,0.08,0.71,0.17,0.66
	C104.63,53.38,104.98,53.2,105.32,53.03L105.32,53.03z M45.67,50.63c0.21-0.46,0.63-1.23,0.92-1.7c0.43-0.69,0.48-0.9,0.24-1.06
	c-0.55-0.35-0.74-0.2-1.29,0.98c-0.69,1.48-0.92,2.19-0.77,2.43C45,51.65,45.29,51.44,45.67,50.63L45.67,50.63z M98.71,49.51
	c-0.07-0.07-0.39,0.05-0.71,0.27l-0.59,0.39l0.64,0.39l0.64,0.39l0.07-0.65C98.8,49.93,98.78,49.58,98.71,49.51L98.71,49.51z
	 M32.11,49.96c0.56-1.13,1.65-3.04,1.81-3.18c0.07-0.06,0.3-0.46,0.51-0.89c0.21-0.43,0.54-0.99,0.73-1.25
	c0.33-0.45,0.31-0.5-0.5-0.98c-1.02-0.61-2.81-1.55-2.97-1.55c-0.06,0-0.29,0.38-0.51,0.83c-0.22,0.46-0.52,1.04-0.67,1.28
	c-1.4,2.33-2.63,4.68-2.47,4.73c0.11,0.04,0.9,0.47,1.76,0.95c0.86,0.49,1.63,0.88,1.72,0.89C31.62,50.79,31.88,50.42,32.11,49.96
	L32.11,49.96z M96.76,49.34c0.34-0.81,1.14-1.76,1.66-1.96c0.3-0.11,0.38-0.42,0.38-1.37V44.8l-0.61,0.27
	c-0.34,0.15-1.04,0.5-1.56,0.77l-0.95,0.5v1.76C95.68,50.73,96.02,51.12,96.76,49.34L96.76,49.34z M37.25,47.89
	c0.07-0.06,0.35-0.54,0.62-1.06c0.45-0.88,0.45-0.95,0.08-0.95c-0.52,0-0.76,0.34-1.1,1.56c-0.49,1.76-0.5,1.92-0.11,1.23
	C36.95,48.31,37.18,47.96,37.25,47.89L37.25,47.89z M47.96,46.69c0.21-0.25,0.16-0.39-0.24-0.67c-0.47-0.33-0.52-0.32-0.77,0.15
	c-0.2,0.38-0.2,0.54-0.01,0.66C47.33,47.08,47.67,47.04,47.96,46.69z M25.47,43.99c0.36-0.61,0.88-1.52,1.14-2.01
	c0.26-0.49,0.68-1.19,0.94-1.55c0.31-0.44,0.37-0.68,0.2-0.74c-0.14-0.05-0.62-0.33-1.06-0.63c-0.44-0.3-0.83-0.54-0.86-0.54
	s-1.31-0.72-2.83-1.6s-3.12-1.79-3.55-2.03c-0.43-0.23-1.68-0.96-2.79-1.61c-1.1-0.65-2.86-1.66-3.9-2.24
	c-1.04-0.58-1.94-1.11-2.01-1.19c-0.06-0.07-0.48-0.33-0.94-0.58c-0.46-0.25-1.59-0.88-2.53-1.41c-1.61-0.91-1.71-0.94-2.01-0.56
	c-0.28,0.37-1.42,2.31-3.04,5.2l-0.6,1.07l0.82,0.55c0.45,0.3,1.09,0.69,1.42,0.86c0.61,0.31,3.73,2.09,5.43,3.09
	c0.52,0.31,1.83,1.05,2.92,1.65c1.09,0.6,2.03,1.17,2.09,1.26c0.06,0.09,0.46,0.33,0.89,0.53c0.83,0.39,2.41,1.31,2.79,1.62
	c0.12,0.1,0.65,0.38,1.17,0.61c0.52,0.23,0.95,0.5,0.95,0.6s0.2,0.24,0.44,0.31c0.46,0.15,2.86,1.52,3.23,1.85
	c0.14,0.12,0.37-0.11,0.62-0.6C24.63,45.47,25.1,44.61,25.47,43.99L25.47,43.99z M31.02,41.32c0.8-1.56,1.57-2.86,1.93-3.26
	c0.32-0.35,0.31-0.41-0.13-0.64c-0.64-0.34-0.9-0.1-1.74,1.62c-0.82,1.68-2.28,5.39-2.27,5.79C28.82,45.12,30.2,42.92,31.02,41.32
	L31.02,41.32z M39.17,44.33c0.08-0.25,0.22-0.45,0.31-0.45c0.24,0,0.69-1.04,0.53-1.2c-0.38-0.38-0.96-0.04-1.49,0.85
	c-0.71,1.21-0.71,1.24-0.04,1.24C38.83,44.77,39.08,44.61,39.17,44.33z M83.3,43.25c-0.12-0.1-2.32-1.4-4.89-2.87
	c-2.57-1.48-5.03-2.89-5.46-3.15c-1.64-0.98-2.01-1.15-2.01-0.95c0,0.12,0.88,0.69,1.95,1.27c1.07,0.58,2,1.12,2.06,1.2
	c0.06,0.08,0.45,0.28,0.85,0.44c0.41,0.17,0.86,0.42,1,0.56c0.14,0.14,0.56,0.41,0.93,0.6c1.86,0.96,4.91,2.75,4.98,2.9
	c0.04,0.1,0.24,0.18,0.43,0.18C83.36,43.44,83.42,43.36,83.3,43.25L83.3,43.25z M83.56,40.83c-0.06-0.06-0.36,0.07-0.66,0.3
	l-0.54,0.41l0.58,0.36c0.58,0.35,0.59,0.35,0.66-0.3C83.64,41.24,83.62,40.89,83.56,40.83L83.56,40.83z M85.2,42.12
	c0-0.11,0.33-0.36,0.72-0.55c0.4-0.2,0.95-0.53,1.22-0.75l0.49-0.39l-0.58-1.25c-0.5-1.08-0.78-1.37-1.94-2.04
	c-0.75-0.43-1.38-0.76-1.41-0.74c-0.03,0.03,0.15,0.62,0.39,1.32c0.25,0.7,0.51,2.02,0.59,2.94c0.08,0.92,0.23,1.67,0.33,1.67
	C85.12,42.32,85.2,42.23,85.2,42.12z M38.62,41.2c0.34-0.63,0.11-0.53-0.34,0.15c-0.21,0.32-0.27,0.52-0.14,0.43
	C38.28,41.7,38.49,41.43,38.62,41.2L38.62,41.2z M80.41,37.93c-0.64-3.41-1.47-4.79-3.06-5.09c-0.92-0.17-0.94-0.15-0.59,1.11
	c0.13,0.48,0.31,1.73,0.39,2.78l0.15,1.9l0.89,0.49c0.49,0.27,0.99,0.58,1.11,0.68c0.12,0.1,0.47,0.3,0.78,0.43
	C80.82,40.56,80.86,40.33,80.41,37.93L80.41,37.93z M82.71,40.08c0.71-0.43,0.73-0.5,0.59-1.39c-0.09-0.52-0.23-1.04-0.32-1.16
	c-0.09-0.12-0.34-0.68-0.55-1.25c-0.29-0.77-0.58-1.12-1.15-1.39l-0.77-0.37l0.27,0.5c0.4,0.74,0.84,3.01,0.85,4.35
	c0,0.64,0.08,1.17,0.18,1.17C81.89,40.54,82.3,40.33,82.71,40.08z M89.14,39.74c0.07-0.2-0.8-0.87-0.93-0.72
	c-0.04,0.04,0.02,0.31,0.13,0.59C88.54,40.11,89,40.19,89.14,39.74z M92.24,38.5c1.57-0.69,1.58-0.68-2.47-2.94
	c-1.1-0.62-2.06-1.18-2.12-1.25c-0.06-0.07-0.46-0.3-0.89-0.52c-0.43-0.22-1.68-0.94-2.79-1.6s-2.43-1.41-2.94-1.67
	c-0.51-0.25-1-0.56-1.07-0.68c-0.08-0.12-0.28-0.22-0.46-0.22c-0.25,0-0.32,0.33-0.32,1.43c0,1.65-0.06,1.59,3.01,3.25
	c0.98,0.53,1.83,1.02,1.89,1.1c0.06,0.07,0.48,0.33,0.93,0.57c3.57,1.95,5.1,2.84,5.22,3.03C90.38,39.24,90.79,39.14,92.24,38.5
	L92.24,38.5z M30.76,37.29c-0.07-0.07-0.26,0.1-0.4,0.38c-0.26,0.5-0.25,0.5,0.14,0.14C30.72,37.6,30.84,37.37,30.76,37.29
	L30.76,37.29z M76.12,37.15c-0.1-0.82-0.11-0.83-0.62-0.45l-0.52,0.38l0.58,0.5c0.32,0.28,0.6,0.48,0.62,0.45
	C76.2,38,76.18,37.6,76.12,37.15z M73.16,35.02c0-1.48-0.25-1.8-0.88-1.14c-0.96,1.02-0.99,1.26-0.19,1.75
	c0.4,0.25,0.81,0.45,0.9,0.45C73.09,36.08,73.16,35.6,73.16,35.02L73.16,35.02z M75.6,35.51c0.27-0.25,0.27-0.5,0.04-1.55
	c-0.28-1.25-0.28-1.25-0.99-1.1c-0.89,0.19-0.85,0.11-0.59,1c0.12,0.42,0.22,1.1,0.22,1.5c0,0.66,0.05,0.73,0.5,0.59
	C75.06,35.88,75.42,35.67,75.6,35.51L75.6,35.51z M70.69,34.52c0.07-0.06,0.34-0.51,0.58-0.99c0.42-0.82,0.57-0.92,2.28-1.44
	l1.84-0.55v-1.29c0-0.71-0.1-1.29-0.21-1.29c-0.31,0-2.12,0.73-3.85,1.56l-1.5,0.72l0.01,2.37c0.01,2.31,0.02,2.35,0.37,1.7
	C70.39,34.93,70.62,34.58,70.69,34.52L70.69,34.52z M68.71,33.18c0-0.61-0.08-1.11-0.17-1.11c-0.27,0.01-2.34,1.58-2.22,1.69
	c0.08,0.08,1.47,0.4,2.22,0.51C68.63,34.29,68.71,33.8,68.71,33.18L68.71,33.18z M2.23,30.51c0.15-0.31,0.56-1.06,0.92-1.67
	c1.45-2.46,1.42-2.39,1.09-2.59c-0.45-0.28-1.62-0.24-2.01,0.08c-0.89,0.72-1.08,1.34-1.08,3.59c0,2.17,0.01,2.2,0.4,1.68
	C1.78,31.3,2.09,30.81,2.23,30.51L2.23,30.51z M78.05,28.82c-0.14-0.17-0.65-0.31-1.13-0.31h-0.86v1.52v1.52l1.06,0.2l1.06,0.2
	l0.07-1.41C78.29,29.7,78.21,29,78.05,28.82L78.05,28.82z M66.45,26.91c0.63-0.26,1.14-0.54,1.14-0.62s-0.28-0.26-0.61-0.41
	c-0.34-0.15-1.08-0.54-1.65-0.88c-2.57-1.53-3.69-2.19-4.2-2.46c-0.31-0.16-1.06-0.59-1.67-0.95c-0.61-0.36-1.52-0.88-2.01-1.14
	c-0.49-0.26-0.94-0.54-1-0.62c-0.06-0.08-0.46-0.33-0.89-0.56c-1.7-0.93-2.63-1.45-4.12-2.32l-1.56-0.91l-0.07,1.02
	c-0.04,0.56-0.02,1.15,0.04,1.31c0.06,0.16,0.94,0.76,1.96,1.33c3.04,1.71,5.6,3.19,5.97,3.45c0.19,0.13,0.67,0.42,1.06,0.63
	c2.03,1.09,4.65,2.59,4.74,2.73c0.11,0.16,1.34,0.82,1.59,0.87C65.24,27.38,65.82,27.17,66.45,26.91L66.45,26.91z M3.28,24.94
	c0.37,0,0.92,0.13,1.22,0.28c0.52,0.26,0.58,0.23,0.96-0.47c0.22-0.41,0.5-0.87,0.62-1.01c0.12-0.14,0.63-0.91,1.14-1.7
	c2.64-4.15,7.37-9.47,11.19-12.62c1.11-0.91,2.17-1.8,2.35-1.97c0.18-0.17,0.61-0.43,0.95-0.59c0.34-0.15,0.61-0.35,0.61-0.44
	s0.3-0.29,0.68-0.44c0.37-0.15,0.64-0.39,0.6-0.52c-0.14-0.43-2.68-1.06-4.28-1.07c-1.92-0.01-2.96,0.36-4.93,1.72
	c-3.12,2.15-4.78,3.68-7.02,6.45c-1.78,2.2-2.16,2.79-3.44,5.46c-0.56,1.16-1.11,2.29-1.23,2.51c-0.18,0.33-0.4,1.12-1.25,4.57
	c-0.12,0.49-0.1,0.49,0.51,0.17C2.33,25.09,2.92,24.94,3.28,24.94L3.28,24.94z M48.87,17.2c0-1.16-0.02-1.21-0.5-1.06
	c-0.55,0.17-2.4,1.2-2.4,1.34c0,0.24,2.14,1.13,2.49,1.04C48.79,18.44,48.87,18.19,48.87,17.2z M26.37,4.05
	c0.19-0.16,0.42-0.29,0.49-0.29s0.67-0.24,1.32-0.53c0.65-0.29,1.63-0.66,2.18-0.8c0.55-0.15,1.2-0.36,1.45-0.47
	c0.59-0.26,2.64-0.64,3.65-0.67c0.51-0.01,0.12-0.14-1.09-0.35c-2.97-0.52-7.6-0.01-11.93,1.31c-2.34,0.71-3.04,1.07-2.1,1.07
	c0.81,0,3.2,0.66,3.29,0.9c0.04,0.12,0.26,0.21,0.49,0.21s0.47,0.1,0.55,0.21C24.82,4.88,25.78,4.54,26.37,4.05L26.37,4.05z"/>
</svg>
